<svg width="24" height="24" viewBox="0 0 24 24" fill="none" xmlns="http://www.w3.org/2000/svg">
<path d="M12.0002 1C10.2208 1.00094 8.48163 1.52919 7.00231 2.51803C5.523 3.50687 4.36991 4.91194 3.68872 6.55577C3.00752 8.19959 2.82876 10.0084 3.17503 11.7538C3.52129 13.4991 4.37704 15.1027 5.63419 16.362C7.26419 17.992 11.1002 20.35 11.3272 22.827C11.3612 23.197 11.6302 23.5 12.0002 23.5C12.3702 23.5 12.6402 23.197 12.6732 22.827C12.9002 20.35 16.7332 17.996 18.3622 16.367C19.6208 15.1082 20.478 13.5046 20.8254 11.7587C21.1727 10.0129 20.9947 8.20326 20.3138 6.55857C19.6329 4.91388 18.4797 3.50799 16.9999 2.5186C15.5201 1.52921 13.7803 1.00074 12.0002 1Z" fill="#FF4433"/>
<path d="M11.9999 13.079C11.5956 13.079 11.1952 12.9994 10.8216 12.8446C10.4481 12.6899 10.1086 12.4631 9.82272 12.1772C9.53681 11.8913 9.31001 11.5518 9.15527 11.1783C9.00054 10.8047 8.9209 10.4043 8.9209 10C8.9209 9.59567 9.00054 9.19528 9.15527 8.82172C9.31001 8.44816 9.53681 8.10874 9.82272 7.82282C10.1086 7.53691 10.4481 7.31011 10.8216 7.15538C11.1952 7.00065 11.5956 6.92101 11.9999 6.92101C12.8165 6.92101 13.5997 7.2454 14.1771 7.82282C14.7545 8.40025 15.0789 9.1834 15.0789 10C15.0789 10.8166 14.7545 11.5998 14.1771 12.1772C13.5997 12.7546 12.8165 13.079 11.9999 13.079Z" fill="white"/>
</svg>
