<svg width="48" height="48" viewBox="0 0 48 48" fill="none" xmlns="http://www.w3.org/2000/svg">
<rect width="48" height="48" rx="24" fill="#007DCA"/>
<path fill-rule="evenodd" clip-rule="evenodd" d="M16.6813 11L23.9983 15.9059L31.3154 11L30.6752 13.1146L25.4618 17.4285L26.6508 18.8664L25.0044 22.2498L26.3764 26.2254L23.9983 33.5843L21.6203 26.2254L22.9923 22.2498L21.3459 18.8664L22.5349 17.4285L17.3215 13.1146L16.6813 11Z" fill="#D2D2D2"/>
<path fill-rule="evenodd" clip-rule="evenodd" d="M23.9994 33.4157L16.7295 11H8.99939L11.8521 19.0056C13.8153 19.2303 17.1528 20.7753 14.7969 25.1573L23.9994 41L33.2018 25.1573C30.846 20.7753 34.1834 19.2303 36.1466 19.0056L38.9994 11H31.2693L23.9994 33.4157Z" fill="white"/>
</svg>
