<svg width="107" height="23" viewBox="0 0 107 23" fill="none" xmlns="http://www.w3.org/2000/svg">
<path d="M2.208 0.591999H0.48C1.152 0.976 1.472 2.416 1.472 4.272V18.352C1.472 20.112 1.184 21.616 0.48 22H8.032C14.048 22 16.832 18.256 16.832 11.312C16.832 4.528 13.696 0.623999 8.032 0.623999L2.208 0.591999ZM5.856 21.68C5.088 21.68 4.416 21.136 4.256 20.368C4.16 19.792 4.096 19.088 4.096 18.352V4.272C4.096 3.536 4.128 2.832 4.224 2.256C4.384 1.488 5.056 0.943998 5.856 0.943998H7.584C12.096 0.943998 13.888 4.688 13.888 11.312C13.888 18.064 12.064 21.68 7.712 21.68H5.856ZM31.4245 7.888C27.5845 7.888 24.4805 10.512 24.4805 14.928C24.4805 19.536 27.5845 22.16 31.4245 22.16C33.7605 22.16 35.8085 21.2 37.0565 19.408C37.0565 19.408 35.3285 21.296 32.3845 21.296C32.0645 21.296 31.7445 21.264 31.4245 21.232C29.0245 20.912 27.2965 19.152 27.2965 14.928V14.768H38.3685C38.2725 10.416 35.2005 7.888 31.4245 7.888ZM27.2965 14.448C27.4245 10.576 28.9925 8.24 31.4245 8.24C33.8565 8.24 35.4245 10.448 35.5525 14.448H27.2965ZM22.6565 12.208C22.8165 11.536 23.9685 8.24 27.3605 7.024C28.0965 6.768 29.3445 6.48 30.7205 6.48C32.0325 6.48 33.4725 6.736 34.6245 7.504L35.3925 5.2C34.7205 5.104 34.0485 5.04 33.3445 5.04C31.2645 5.04 29.1845 5.52 27.5525 6.192C24.8005 7.376 22.9765 10.064 22.6565 11.408V7.888C22.5605 7.952 21.0885 8.88 19.0725 9.136C19.3925 9.328 19.6485 9.776 19.8085 10.416C19.9685 11.056 20.0645 11.888 20.0645 12.816V18.32C20.0645 20.112 19.7445 21.584 19.0725 22H23.6485C22.9765 21.616 22.6565 20.08 22.6565 18.32V12.208ZM46.1385 22.16C47.8665 22.16 51.5465 21.296 51.5465 18.16C51.5465 16.784 50.7465 15.44 49.1785 14.768L45.0185 12.944C43.9305 12.464 43.2265 11.952 43.2265 10.736C43.2265 9.328 44.4105 8.272 46.0745 8.24C47.6745 8.24 49.0505 8.88 49.4985 10.64L50.9385 9.264C49.6265 8.368 47.9625 7.92 46.1385 7.92C41.7865 7.92 40.6345 10.512 40.6345 11.728C40.6345 13.008 41.4025 14.288 42.8425 14.896L47.3545 16.88C48.4425 17.36 49.3065 18.064 49.3065 19.12C49.3065 20.624 48.0265 21.808 46.2025 21.84C44.4425 21.84 42.4905 20.976 42.2345 18.768L40.6025 20.176C42.0105 21.456 43.9625 22.16 46.1385 22.16ZM59.3248 22.16C61.0528 22.16 64.7328 21.296 64.7328 18.16C64.7328 16.784 63.9328 15.44 62.3648 14.768L58.2048 12.944C57.1168 12.464 56.4128 11.952 56.4128 10.736C56.4128 9.328 57.5968 8.272 59.2608 8.24C60.8608 8.24 62.2368 8.88 62.6848 10.64L64.1248 9.264C62.8128 8.368 61.1488 7.92 59.3248 7.92C54.9728 7.92 53.8208 10.512 53.8208 11.728C53.8208 13.008 54.5888 14.288 56.0288 14.896L60.5408 16.88C61.6288 17.36 62.4928 18.064 62.4928 19.12C62.4928 20.624 61.2128 21.808 59.3888 21.84C57.6288 21.84 55.6768 20.976 55.4208 18.768L53.7888 20.176C55.1968 21.456 57.1488 22.16 59.3248 22.16ZM90.143 22C89.471 21.616 89.151 20.112 89.151 18.352V14.896C89.151 10.32 87.199 7.92 83.871 7.92C81.215 7.92 79.839 10.256 79.327 11.312C78.527 9.072 76.863 7.92 74.591 7.92C72.223 7.92 71.135 9.52 70.559 10.512V7.92C70.463 7.952 68.991 8.88 66.975 9.168C67.295 9.328 67.551 9.776 67.711 10.416C67.871 11.056 67.935 11.888 67.935 12.816V18.352C67.935 20.112 67.647 21.584 66.975 22H71.551C70.879 21.616 70.559 20.112 70.559 18.352V10.992C70.815 10.704 71.711 8.656 73.567 8.528H73.855C75.039 8.528 77.247 9.04 77.247 14.96V18.352C77.247 20.112 76.959 21.584 76.255 22H80.863C80.159 21.616 79.871 20.112 79.871 18.352V14.896C79.871 13.68 79.711 12.624 79.455 11.728C79.903 10.672 81.215 8.528 82.879 8.528H82.911C83.967 8.528 86.559 8.56 86.559 14.96V18.352C86.559 20.112 86.239 21.584 85.567 22H90.143ZM106.236 14.768C106.172 10.416 103.1 7.92 99.292 7.92C95.484 7.92 92.38 10.512 92.38 14.928C92.38 19.536 95.484 22.16 99.292 22.16C101.628 22.16 103.676 21.2 104.956 19.408C104.956 19.408 103.196 21.296 100.284 21.296C99.964 21.296 99.644 21.264 99.324 21.232C96.924 20.912 95.196 19.152 95.196 14.928V14.768H106.236ZM99.324 8.24C101.756 8.24 103.324 10.448 103.452 14.448H95.196C95.324 10.576 96.86 8.24 99.324 8.24Z" fill="black"/>
<path d="M2.208 0.591999L2.20965 0.291999H2.208V0.591999ZM0.48 0.591999V0.291999H-0.649667L0.331158 0.852472L0.48 0.591999ZM0.48 22L0.336344 21.7366L0.48 22.3V22ZM8.032 0.623999L8.03035 0.923999H8.032V0.623999ZM4.256 20.368L3.95984 20.4174L3.96231 20.4292L4.256 20.368ZM4.224 2.256L3.93007 2.19476L3.92808 2.20668L4.224 2.256ZM2.208 0.291999H0.48V0.891999H2.208V0.291999ZM0.331158 0.852472C0.55471 0.980216 0.777081 1.32888 0.93739 1.95447C1.0929 2.56134 1.172 3.35803 1.172 4.272H1.772C1.772 3.32997 1.6911 2.47866 1.51861 1.80553C1.35092 1.15112 1.07729 0.587783 0.628842 0.331526L0.331158 0.852472ZM1.172 4.272V18.352H1.772V4.272H1.172ZM1.172 18.352C1.172 19.2191 1.10074 20.0083 0.948851 20.6197C0.791752 21.252 0.569053 21.6097 0.336344 21.7366L0.623656 22.2634C1.09495 22.0063 1.36825 21.42 1.53115 20.7643C1.69926 20.0877 1.772 19.2449 1.772 18.352H1.172ZM0.48 22.3H8.032V21.7H0.48V22.3ZM8.032 22.3C11.1058 22.3 13.4029 21.3403 14.922 19.4478C16.4309 17.5679 17.132 14.8162 17.132 11.312H16.532C16.532 14.7518 15.8411 17.3441 14.454 19.0722C13.0771 20.7877 10.9742 21.7 8.032 21.7V22.3ZM17.132 11.312C17.132 7.87874 16.339 5.12991 14.7882 3.23406C13.23 1.32913 10.9384 0.323998 8.032 0.323998V0.923999C10.7896 0.923999 12.898 1.87086 14.3238 3.61394C15.757 5.36609 16.532 7.96126 16.532 11.312H17.132ZM8.03365 0.324003L2.20965 0.292004L2.20635 0.891994L8.03035 0.923994L8.03365 0.324003ZM5.856 21.38C5.23127 21.38 4.68095 20.9368 4.54969 20.3068L3.96231 20.4292C4.15105 21.3352 4.94473 21.98 5.856 21.98V21.38ZM4.55192 20.3187C4.45866 19.7591 4.396 19.0716 4.396 18.352H3.796C3.796 19.1044 3.86134 19.8249 3.96008 20.4173L4.55192 20.3187ZM4.396 18.352V4.272H3.796V18.352H4.396ZM4.396 4.272C4.396 3.54159 4.42798 2.85695 4.51992 2.30532L3.92808 2.20668C3.82802 2.80705 3.796 3.53041 3.796 4.272H4.396ZM4.51769 2.31719C4.64823 1.69061 5.19573 1.244 5.856 1.244V0.643998C4.91627 0.643998 4.11977 1.28539 3.93031 2.19481L4.51769 2.31719ZM5.856 1.244H7.584V0.643998H5.856V1.244ZM7.584 1.244C8.66978 1.244 9.57493 1.46892 10.3247 1.89354C11.0739 2.31785 11.6846 2.951 12.1678 3.79329C13.1402 5.48833 13.588 8.01617 13.588 11.312H14.188C14.188 7.98383 13.7398 5.32767 12.6882 3.49471C12.1594 2.573 11.4761 1.85614 10.6203 1.37146C9.76508 0.887072 8.75422 0.643998 7.584 0.643998V1.244ZM13.588 11.312C13.588 14.6719 13.1322 17.1999 12.1716 18.879C11.6943 19.7134 11.0945 20.3344 10.3649 20.7486C9.63475 21.1631 8.75772 21.38 7.712 21.38V21.98C8.84229 21.98 9.82525 21.7449 10.6611 21.2704C11.4975 20.7956 12.1697 20.0906 12.6924 19.177C13.7318 17.3601 14.188 14.7041 14.188 11.312H13.588ZM7.712 21.38H5.856V21.98H7.712V21.38ZM37.0565 19.408L37.3027 19.5794L36.8352 19.2055L37.0565 19.408ZM31.4245 21.232L31.3848 21.5295L31.3946 21.5305L31.4245 21.232ZM27.2965 14.768V14.468H26.9965V14.768H27.2965ZM38.3685 14.768V15.068H38.6752L38.6684 14.7614L38.3685 14.768ZM27.2965 14.448L26.9967 14.4381L26.9864 14.748H27.2965V14.448ZM35.5525 14.448V14.748H35.8623L35.8523 14.4384L35.5525 14.448ZM22.6565 12.208L22.3647 12.1385L22.3565 12.1728V12.208H22.6565ZM27.3605 7.024L27.2619 6.74064L27.2593 6.7416L27.3605 7.024ZM34.6245 7.504L34.4581 7.75361L34.7849 7.97149L34.9091 7.59887L34.6245 7.504ZM35.3925 5.2L35.6771 5.29487L35.7908 4.95385L35.4349 4.90301L35.3925 5.2ZM27.5525 6.192L27.4383 5.91456L27.4339 5.91642L27.5525 6.192ZM22.6565 11.408H22.3565L22.9483 11.4775L22.6565 11.408ZM22.6565 7.888H22.9565V7.32744L22.4901 7.63838L22.6565 7.888ZM19.0725 9.136L19.0347 8.83839L18.1753 8.94752L18.9182 9.39325L19.0725 9.136ZM19.8085 10.416L20.0995 10.3432L19.8085 10.416ZM19.0725 22L18.9146 21.7449L18.0179 22.3H19.0725V22ZM23.6485 22V22.3H24.7782L23.7973 21.7395L23.6485 22ZM31.4245 7.588C29.4361 7.588 27.6227 8.26801 26.3045 9.53578C24.9843 10.8056 24.1805 12.6463 24.1805 14.928H24.7805C24.7805 12.7937 25.5287 11.1144 26.7205 9.96822C27.9143 8.81998 29.5729 8.188 31.4245 8.188V7.588ZM24.1805 14.928C24.1805 17.3021 24.9819 19.1908 26.3024 20.4862C27.6212 21.7798 29.4359 22.46 31.4245 22.46V21.86C29.5731 21.86 27.9158 21.2282 26.7226 20.0578C25.5311 18.8892 24.7805 17.1619 24.7805 14.928H24.1805ZM31.4245 22.46C33.8442 22.46 35.9908 21.4631 37.3027 19.5794L36.8103 19.2366C35.6262 20.9369 33.6768 21.86 31.4245 21.86V22.46ZM37.0565 19.408C36.8352 19.2055 36.8353 19.2054 36.8353 19.2053C36.8354 19.2053 36.8354 19.2052 36.8355 19.2052C36.8355 19.2051 36.8356 19.2051 36.8356 19.2051C36.8356 19.205 36.8355 19.2051 36.8353 19.2053C36.8349 19.2058 36.8341 19.2066 36.8329 19.2079C36.8305 19.2105 36.8264 19.2147 36.8207 19.2206C36.8094 19.2324 36.7915 19.2506 36.7672 19.2742C36.7186 19.3215 36.6446 19.3907 36.5461 19.4745C36.349 19.6423 36.0549 19.8677 35.6721 20.0936C34.9063 20.5454 33.7905 20.996 32.3845 20.996V21.596C33.9225 21.596 35.1427 21.1026 35.9769 20.6104C36.3941 20.3643 36.716 20.1177 36.9349 19.9315C37.0444 19.8383 37.1284 19.76 37.1858 19.704C37.2145 19.6761 37.2366 19.6537 37.252 19.6378C37.2597 19.6298 37.2657 19.6235 37.27 19.6189C37.2722 19.6166 37.2739 19.6148 37.2752 19.6134C37.2758 19.6127 37.2764 19.6121 37.2768 19.6116C37.277 19.6114 37.2772 19.6112 37.2774 19.611C37.2775 19.6109 37.2776 19.6108 37.2776 19.6108C37.2777 19.6106 37.2778 19.6105 37.0565 19.408ZM32.3845 20.996C32.082 20.996 31.7769 20.9657 31.4544 20.9335L31.3946 21.5305C31.7121 21.5623 32.047 21.596 32.3845 21.596V20.996ZM31.4642 20.9346C30.3309 20.7835 29.3789 20.2981 28.7032 19.3677C28.0216 18.4291 27.5965 17.0035 27.5965 14.928H26.9965C26.9965 17.0765 27.4354 18.6429 28.2178 19.7203C29.0061 20.8059 30.1181 21.3605 31.3849 21.5294L31.4642 20.9346ZM27.5965 14.928V14.768H26.9965V14.928H27.5965ZM27.2965 15.068H38.3685V14.468H27.2965V15.068ZM38.6684 14.7614C38.6188 12.5128 37.7981 10.7136 36.4819 9.47733C35.1678 8.24302 33.3795 7.588 31.4245 7.588V8.188C33.2455 8.188 34.8812 8.79698 36.0711 9.91466C37.2589 11.0304 38.0222 12.6712 38.0686 14.7746L38.6684 14.7614ZM27.5963 14.4579C27.6593 12.5548 28.0757 11.064 28.7461 10.0584C29.4092 9.06378 30.3204 8.54 31.4245 8.54V7.94C30.0966 7.94 29.0078 8.58422 28.2469 9.72559C27.4933 10.856 27.0618 12.4692 26.9967 14.4381L27.5963 14.4579ZM31.4245 8.54C32.5346 8.54 33.4442 9.03725 34.1041 10.0121C34.7726 10.9999 35.1897 12.4889 35.2527 14.4576L35.8523 14.4384C35.7873 12.4071 35.3564 10.7921 34.6009 9.67585C33.8368 8.54675 32.7464 7.94 31.4245 7.94V8.54ZM35.5525 14.148H27.2965V14.748H35.5525V14.148ZM22.9483 12.2775C23.0206 11.9739 23.3346 11.0168 24.0434 9.99047C24.7499 8.96727 25.8397 7.88787 27.4617 7.3064L27.2593 6.7416C25.4893 7.37612 24.3071 8.55273 23.5496 9.64953C22.7944 10.7432 22.4524 11.7701 22.3647 12.1385L22.9483 12.2775ZM27.4591 7.30735C28.1678 7.06082 29.3825 6.78 30.7205 6.78V6.18C29.3065 6.18 28.0252 6.47518 27.2619 6.74065L27.4591 7.30735ZM30.7205 6.78C32.0003 6.78 33.3739 7.03079 34.4581 7.75361L34.7909 7.25438C33.5712 6.44121 32.0647 6.18 30.7205 6.18V6.78ZM34.9091 7.59887L35.6771 5.29487L35.1079 5.10513L34.3399 7.40913L34.9091 7.59887ZM35.4349 4.90301C34.7537 4.80569 34.0668 4.74 33.3445 4.74V5.34C34.0302 5.34 34.6873 5.40231 35.3501 5.49698L35.4349 4.90301ZM33.3445 4.74C31.2217 4.74 29.103 5.22912 27.4383 5.9146L27.6667 6.4694C29.266 5.81087 31.3073 5.34 33.3445 5.34V4.74ZM27.4339 5.91642C26.006 6.53075 24.8264 7.53128 23.9639 8.54568C23.1061 9.55464 22.5394 10.6045 22.3647 11.3385L22.9483 11.4775C23.0936 10.8675 23.5989 9.90136 24.4211 8.93432C25.2386 7.97272 26.347 7.03725 27.6711 6.46758L27.4339 5.91642ZM22.9565 11.408V7.888H22.3565V11.408H22.9565ZM22.4901 7.63838C22.4141 7.68906 20.9867 8.59051 19.0347 8.83839L19.1103 9.43361C21.1903 9.16949 22.7069 8.21494 22.8229 8.13761L22.4901 7.63838ZM18.9182 9.39325C19.1328 9.52206 19.3628 9.87023 19.5175 10.4888L20.0995 10.3432C19.9342 9.68177 19.6522 9.13394 19.2268 8.87875L18.9182 9.39325ZM19.5175 10.4888C19.6702 11.0998 19.7645 11.9066 19.7645 12.816H20.3645C20.3645 11.8694 20.2668 11.0122 20.0995 10.3432L19.5175 10.4888ZM19.7645 12.816V18.32H20.3645V12.816H19.7645ZM19.7645 18.32C19.7645 19.2011 19.6855 19.9903 19.5298 20.602C19.3694 21.2318 19.1455 21.602 18.9146 21.7449L19.2304 22.2551C19.6715 21.982 19.9436 21.4082 20.1112 20.75C20.2835 20.0737 20.3645 19.2309 20.3645 18.32H19.7645ZM19.0725 22.3H23.6485V21.7H19.0725V22.3ZM23.7973 21.7395C23.694 21.6805 23.5818 21.5632 23.4726 21.3655C23.3645 21.1697 23.2695 20.913 23.1914 20.6028C23.0354 19.9825 22.9565 19.1848 22.9565 18.32H22.3565C22.3565 19.2152 22.4376 20.0655 22.6096 20.7492C22.6955 21.091 22.8065 21.4003 22.9474 21.6555C23.0872 21.9088 23.267 22.1275 23.4997 22.2605L23.7973 21.7395ZM22.9565 18.32V12.208H22.3565V18.32H22.9565ZM49.1785 14.768L49.058 15.0428L49.0603 15.0437L49.1785 14.768ZM45.0185 12.944L44.8974 13.2185L44.898 13.2188L45.0185 12.944ZM46.0745 8.24V7.93994L46.0687 7.94005L46.0745 8.24ZM49.4985 10.64L49.2078 10.714L49.3345 11.2117L49.7058 10.8569L49.4985 10.64ZM50.9385 9.264L51.1458 9.4809L51.4135 9.22508L51.1077 9.01626L50.9385 9.264ZM42.8425 14.896L42.9633 14.6213L42.9592 14.6196L42.8425 14.896ZM47.3545 16.88L47.4756 16.6055L47.4753 16.6054L47.3545 16.88ZM46.2025 21.84V22.14L46.2078 22.14L46.2025 21.84ZM42.2345 18.768L42.5325 18.7334L42.4673 18.1709L42.0385 18.5409L42.2345 18.768ZM40.6025 20.176L40.4065 19.9489L40.1501 20.1701L40.4007 20.398L40.6025 20.176ZM46.1385 22.46C47.0396 22.46 48.4429 22.237 49.6321 21.6005C50.8308 20.9589 51.8465 19.8732 51.8465 18.16H51.2465C51.2465 19.5828 50.4222 20.4971 49.3489 21.0715C48.2661 21.651 46.9654 21.86 46.1385 21.86V22.46ZM51.8465 18.16C51.8465 16.6608 50.9721 15.2103 49.2967 14.4923L49.0603 15.0437C50.5209 15.6697 51.2465 16.9072 51.2465 18.16H51.8465ZM49.299 14.4932L45.139 12.6692L44.898 13.2188L49.058 15.0427L49.299 14.4932ZM45.1396 12.6695C44.6024 12.4325 44.2032 12.2049 43.9355 11.9132C43.68 11.6347 43.5265 11.2777 43.5265 10.736H42.9265C42.9265 11.4103 43.125 11.9173 43.4935 12.3188C43.8498 12.7071 44.3466 12.9755 44.8974 13.2185L45.1396 12.6695ZM43.5265 10.736C43.5265 9.53069 44.5374 8.56961 46.0803 8.53994L46.0687 7.94005C44.2836 7.97438 42.9265 9.12531 42.9265 10.736H43.5265ZM46.0745 8.54C46.8376 8.54 47.5205 8.69301 48.058 9.03345C48.5885 9.36946 49.0012 9.90265 49.2078 10.714L49.7892 10.566C49.5478 9.61735 49.0485 8.95054 48.379 8.52655C47.7166 8.10699 46.9114 7.94 46.0745 7.94V8.54ZM49.7058 10.8569L51.1458 9.4809L50.7312 9.0471L49.2912 10.4231L49.7058 10.8569ZM51.1077 9.01626C49.7362 8.07966 48.0101 7.62 46.1385 7.62V8.22C47.9149 8.22 49.5168 8.65634 50.7693 9.51174L51.1077 9.01626ZM46.1385 7.62C43.9002 7.62 42.4445 8.28831 41.5466 9.15175C40.6556 10.0085 40.3345 11.0386 40.3345 11.728H40.9345C40.9345 11.2014 41.1894 10.3275 41.9624 9.58425C42.7285 8.84769 44.0248 8.22 46.1385 8.22V7.62ZM40.3345 11.728C40.3345 13.1305 41.1765 14.5182 42.7258 15.1724L42.9592 14.6196C41.6285 14.0578 40.9345 12.8855 40.9345 11.728H40.3345ZM42.7217 15.1706L47.2337 17.1546L47.4753 16.6054L42.9633 14.6214L42.7217 15.1706ZM47.2334 17.1545C48.3048 17.6271 49.0065 18.2584 49.0065 19.12H49.6065C49.6065 17.8696 48.5802 17.0929 47.4756 16.6055L47.2334 17.1545ZM49.0065 19.12C49.0065 20.4243 47.8962 21.5102 46.1972 21.54L46.2078 22.14C48.1568 22.1058 49.6065 20.8237 49.6065 19.12H49.0065ZM46.2025 21.54C45.3668 21.54 44.5004 21.3341 43.8206 20.8822C43.1496 20.436 42.6497 19.7445 42.5325 18.7334L41.9365 18.8026C42.0753 19.9995 42.6794 20.844 43.4884 21.3818C44.2886 21.9139 45.2782 22.14 46.2025 22.14V21.54ZM42.0385 18.5409L40.4065 19.9489L40.7985 20.4031L42.4305 18.9951L42.0385 18.5409ZM40.4007 20.398C41.8714 21.735 43.8986 22.46 46.1385 22.46V21.86C44.0264 21.86 42.1496 21.177 40.8043 19.954L40.4007 20.398ZM62.3647 14.768L62.2443 15.0428L62.2466 15.0437L62.3647 14.768ZM58.2048 12.944L58.0837 13.2185L58.0843 13.2188L58.2048 12.944ZM59.2607 8.24V7.93994L59.255 7.94005L59.2607 8.24ZM62.6847 10.64L62.394 10.714L62.5207 11.2117L62.892 10.8569L62.6847 10.64ZM64.1247 9.264L64.332 9.4809L64.5997 9.22508L64.2939 9.01626L64.1247 9.264ZM56.0288 14.896L56.1495 14.6213L56.1454 14.6196L56.0288 14.896ZM60.5407 16.88L60.6618 16.6055L60.6615 16.6054L60.5407 16.88ZM59.3888 21.84V22.14L59.394 22.14L59.3888 21.84ZM55.4207 18.768L55.7188 18.7334L55.6535 18.1709L55.2248 18.5409L55.4207 18.768ZM53.7887 20.176L53.5928 19.9489L53.3363 20.1701L53.5869 20.398L53.7887 20.176ZM59.3247 22.46C60.2259 22.46 61.6291 22.237 62.8183 21.6005C64.0171 20.9589 65.0328 19.8732 65.0328 18.16H64.4328C64.4328 19.5828 63.6084 20.4971 62.5352 21.0715C61.4524 21.651 60.1516 21.86 59.3247 21.86V22.46ZM65.0328 18.16C65.0328 16.6608 64.1583 15.2103 62.4829 14.4923L62.2466 15.0437C63.7072 15.6697 64.4328 16.9072 64.4328 18.16H65.0328ZM62.4852 14.4932L58.3252 12.6692L58.0843 13.2188L62.2443 15.0427L62.4852 14.4932ZM58.3258 12.6695C57.7887 12.4325 57.3895 12.2049 57.1218 11.9132C56.8662 11.6347 56.7127 11.2777 56.7127 10.736H56.1128C56.1128 11.4103 56.3113 11.9173 56.6797 12.3188C57.036 12.7071 57.5328 12.9755 58.0837 13.2185L58.3258 12.6695ZM56.7127 10.736C56.7127 9.53069 57.7237 8.56961 59.2665 8.53994L59.255 7.94005C57.4698 7.97438 56.1128 9.12531 56.1128 10.736H56.7127ZM59.2607 8.54C60.0239 8.54 60.7067 8.69301 61.2442 9.03345C61.7748 9.36946 62.1875 9.90265 62.394 10.714L62.9755 10.566C62.734 9.61735 62.2347 8.95054 61.5653 8.52655C60.9028 8.10699 60.0976 7.94 59.2607 7.94V8.54ZM62.892 10.8569L64.332 9.4809L63.9175 9.0471L62.4775 10.4231L62.892 10.8569ZM64.2939 9.01626C62.9225 8.07966 61.1963 7.62 59.3247 7.62V8.22C61.1012 8.22 62.703 8.65634 63.9556 9.51174L64.2939 9.01626ZM59.3247 7.62C57.0865 7.62 55.6308 8.28831 54.7328 9.15175C53.8418 10.0085 53.5208 11.0386 53.5208 11.728H54.1208C54.1208 11.2014 54.3757 10.3275 55.1487 9.58425C55.9147 8.84769 57.211 8.22 59.3247 8.22V7.62ZM53.5208 11.728C53.5208 13.1305 54.3627 14.5182 55.9121 15.1724L56.1454 14.6196C54.8148 14.0578 54.1208 12.8855 54.1208 11.728H53.5208ZM55.908 15.1706L60.42 17.1546L60.6615 16.6054L56.1495 14.6214L55.908 15.1706ZM60.4197 17.1545C61.491 17.6271 62.1927 18.2584 62.1927 19.12H62.7928C62.7928 17.8696 61.7665 17.0929 60.6618 16.6055L60.4197 17.1545ZM62.1927 19.12C62.1927 20.4243 61.0825 21.5102 59.3835 21.54L59.394 22.14C61.343 22.1058 62.7928 20.8237 62.7928 19.12H62.1927ZM59.3888 21.54C58.5531 21.54 57.6866 21.3341 57.0068 20.8822C56.3358 20.436 55.836 19.7445 55.7188 18.7334L55.1227 18.8026C55.2615 19.9995 55.8657 20.844 56.6747 21.3818C57.4749 21.9139 58.4645 22.14 59.3888 22.14V21.54ZM55.2248 18.5409L53.5928 19.9489L53.9847 20.4031L55.6167 18.9951L55.2248 18.5409ZM53.5869 20.398C55.0576 21.735 57.0849 22.46 59.3247 22.46V21.86C57.2127 21.86 55.3359 21.177 53.9906 19.954L53.5869 20.398ZM90.143 22V22.3H91.2727L90.2918 21.7395L90.143 22ZM79.327 11.312L79.0445 11.4129L79.285 12.0863L79.5969 11.4429L79.327 11.312ZM70.559 10.512H70.259V11.6261L70.8184 10.6626L70.559 10.512ZM70.559 7.92H70.859V7.50377L70.4641 7.6354L70.559 7.92ZM66.975 9.168L66.9326 8.87101L65.9818 9.00683L66.8408 9.43633L66.975 9.168ZM67.711 10.416L68.002 10.3432L67.711 10.416ZM66.975 22L66.8171 21.7449L65.9204 22.3H66.975V22ZM71.551 22V22.3H72.6807L71.6998 21.7395L71.551 22ZM70.559 10.992L70.3348 10.7927L70.259 10.8779V10.992H70.559ZM73.567 8.528V8.228H73.5567L73.5464 8.22871L73.567 8.528ZM76.255 22L76.1024 21.7417L75.1576 22.3H76.255V22ZM80.863 22V22.3L81.0067 21.7366L80.863 22ZM79.455 11.728L79.1788 11.6108L79.1374 11.7085L79.1665 11.8104L79.455 11.728ZM85.567 22L85.4091 21.7449L84.5124 22.3H85.567V22ZM90.2918 21.7395C90.1872 21.6797 90.075 21.5632 89.9663 21.369C89.8585 21.1763 89.7636 20.9239 89.6857 20.618C89.5299 20.0061 89.451 19.2169 89.451 18.352H88.851C88.851 19.2471 88.9321 20.0899 89.1043 20.766C89.1904 21.1041 89.3015 21.4097 89.4427 21.662C89.583 21.9128 89.7628 22.1283 89.9942 22.2605L90.2918 21.7395ZM89.451 18.352V14.896H88.851V18.352H89.451ZM89.451 14.896C89.451 12.5714 88.9561 10.7527 87.9966 9.50877C87.028 8.25303 85.6145 7.62 83.871 7.62V8.22C85.4556 8.22 86.6821 8.78697 87.5215 9.87523C88.37 10.9753 88.851 12.6446 88.851 14.896H89.451ZM83.871 7.62C81.0184 7.62 79.5693 10.1247 79.0571 11.1811L79.5969 11.4429C80.1087 10.3873 81.4116 8.22 83.871 8.22V7.62ZM79.6095 11.2111C79.1925 10.0435 78.5431 9.14084 77.6847 8.53138C76.8261 7.92182 75.7789 7.62 74.591 7.62V8.22C75.6751 8.22 76.5959 8.49418 77.3373 9.02061C78.0789 9.54716 78.6615 10.3405 79.0445 11.4129L79.6095 11.2111ZM74.591 7.62C72.0516 7.62 70.8861 9.35122 70.2996 10.3614L70.8184 10.6626C71.3839 9.68878 72.3944 8.22 74.591 8.22V7.62ZM70.859 10.512V7.92H70.259V10.512H70.859ZM70.4641 7.6354C70.4309 7.64647 70.3969 7.66463 70.3864 7.6701C70.3672 7.68012 70.3431 7.69314 70.3169 7.7074C70.2631 7.73662 70.1918 7.77554 70.1026 7.82234C69.9246 7.91575 69.6757 8.0402 69.3684 8.17244C68.7529 8.43734 67.9071 8.7318 66.9326 8.87101L67.0174 9.46498C68.0589 9.3162 68.9571 9.00266 69.6056 8.72356C69.9303 8.5838 70.1934 8.45225 70.3814 8.35366C70.4752 8.30446 70.5504 8.26338 70.6033 8.2346C70.6305 8.21986 70.6499 8.20937 70.6637 8.20215C70.6863 8.19037 70.6751 8.19753 70.6539 8.2046L70.4641 7.6354ZM66.8408 9.43633C66.9307 9.48124 67.0372 9.58077 67.144 9.76346C67.2496 9.94397 67.3446 10.1874 67.42 10.4888L68.002 10.3432C67.9174 10.0046 67.8044 9.70403 67.662 9.46053C67.5208 9.21923 67.3393 9.01475 67.1092 8.89967L66.8408 9.43633ZM67.42 10.4888C67.5712 11.0936 67.635 11.8971 67.635 12.816H68.235C68.235 11.8789 68.1708 11.0184 68.002 10.3432L67.42 10.4888ZM67.635 12.816V18.352H68.235V12.816H67.635ZM67.635 18.352C67.635 19.2188 67.5638 20.0007 67.4155 20.609C67.2627 21.236 67.0459 21.6033 66.8171 21.7449L67.1329 22.2551C67.5761 21.9807 67.8393 21.404 67.9985 20.751C68.1622 20.0793 68.235 19.2452 68.235 18.352H67.635ZM66.975 22.3H71.551V21.7H66.975V22.3ZM71.6998 21.7395C71.5952 21.6797 71.483 21.5632 71.3743 21.369C71.2665 21.1763 71.1716 20.9239 71.0937 20.618C70.9379 20.0061 70.859 19.2169 70.859 18.352H70.259C70.259 19.2471 70.3401 20.0899 70.5123 20.766C70.5984 21.1041 70.7095 21.4097 70.8507 21.662C70.991 21.9128 71.1708 22.1283 71.4022 22.2605L71.6998 21.7395ZM70.859 18.352V10.992H70.259V18.352H70.859ZM70.7832 11.1913C70.8349 11.1332 70.8902 11.047 70.9397 10.9682C70.9968 10.8772 71.0539 10.783 71.1292 10.6644C71.2747 10.4354 71.4597 10.1623 71.6899 9.89629C72.1531 9.36091 72.7733 8.88345 73.5876 8.82729L73.5464 8.22871C72.5047 8.30055 71.7489 8.91108 71.2361 9.5037C70.9783 9.80167 70.7753 10.1026 70.6228 10.3426C70.5491 10.4585 70.4797 10.5725 70.4316 10.6492C70.3758 10.738 70.3471 10.7788 70.3348 10.7927L70.7832 11.1913ZM73.567 8.828H73.855V8.228H73.567V8.828ZM73.855 8.828C74.3979 8.828 75.1403 8.942 75.7615 9.71233C76.3979 10.5014 76.947 12.0263 76.947 14.96H77.547C77.547 11.9737 76.9921 10.2826 76.2285 9.33567C75.4498 8.37 74.4961 8.228 73.855 8.228V8.828ZM76.947 14.96V18.352H77.547V14.96H76.947ZM76.947 18.352C76.947 19.219 76.8757 20.0001 76.724 20.6072C76.5679 21.2316 76.3448 21.5985 76.1024 21.7417L76.4076 22.2583C76.8692 21.9855 77.1422 21.4084 77.306 20.7528C77.4743 20.0799 77.547 19.245 77.547 18.352H76.947ZM76.255 22.3H80.863V21.7H76.255V22.3ZM81.0067 21.7366C80.7739 21.6097 80.5513 21.252 80.3941 20.6197C80.2423 20.0083 80.171 19.2191 80.171 18.352H79.571C79.571 19.2449 79.6437 20.0877 79.8119 20.7643C79.9748 21.42 80.2481 22.0063 80.7193 22.2634L81.0067 21.7366ZM80.171 18.352V14.896H79.571V18.352H80.171ZM80.171 14.896C80.171 13.6536 80.0075 12.5698 79.7435 11.6456L79.1665 11.8104C79.4145 12.6782 79.571 13.7064 79.571 14.896H80.171ZM79.7312 11.8452C79.9455 11.34 80.3696 10.5695 80.9355 9.93097C81.5085 9.28442 82.177 8.828 82.879 8.828V8.228C81.917 8.228 81.0975 8.84358 80.4865 9.53302C79.8684 10.2305 79.4125 11.06 79.1788 11.6108L79.7312 11.8452ZM82.879 8.828H82.911V8.228H82.879V8.828ZM82.911 8.828C83.4307 8.828 84.2277 8.84022 84.9152 9.55236C85.6141 10.2764 86.259 11.7872 86.259 14.96H86.859C86.859 11.7328 86.2079 10.0276 85.3468 9.13564C84.4743 8.23178 83.4473 8.228 82.911 8.228V8.828ZM86.259 14.96V18.352H86.859V14.96H86.259ZM86.259 18.352C86.259 19.2167 86.1801 19.9979 86.0244 20.6055C85.864 21.2314 85.6402 21.6018 85.4091 21.7449L85.7249 22.2551C86.1658 21.9822 86.438 21.4086 86.6056 20.7545C86.7779 20.0821 86.859 19.2472 86.859 18.352H86.259ZM85.567 22.3H90.143V21.7H85.567V22.3ZM106.236 14.768V15.068H106.54L106.536 14.7636L106.236 14.768ZM104.956 19.408L105.2 19.5824L104.737 19.2034L104.956 19.408ZM99.324 21.232L99.2843 21.5295L99.2942 21.5305L99.324 21.232ZM95.196 14.768V14.468H94.896V14.768H95.196ZM103.452 14.448V14.748H103.762L103.752 14.4384L103.452 14.448ZM95.196 14.448L94.8962 14.4381L94.8859 14.748H95.196V14.448ZM106.536 14.7636C106.503 12.5142 105.69 10.7217 104.373 9.49264C103.058 8.26593 101.261 7.62 99.292 7.62V8.22C101.131 8.22 102.774 8.82207 103.963 9.93136C105.15 11.0383 105.905 12.6698 105.936 14.7724L106.536 14.7636ZM99.292 7.62C97.32 7.62 95.5147 8.29175 94.2004 9.55142C92.8839 10.8133 92.08 12.6462 92.08 14.928H92.68C92.68 12.7938 93.4281 11.1227 94.6156 9.98458C95.8053 8.84425 97.456 8.22 99.292 8.22V7.62ZM92.08 14.928C92.08 17.3021 92.8813 19.1906 94.1976 20.4858C95.5121 21.7794 97.3188 22.46 99.292 22.46V21.86C97.4573 21.86 95.8079 21.2286 94.6184 20.0582C93.4307 18.8894 92.68 17.1619 92.68 14.928H92.08ZM99.292 22.46C101.713 22.46 103.857 21.4627 105.2 19.5824L104.712 19.2336C103.495 20.9373 101.543 21.86 99.292 21.86V22.46ZM104.956 19.408C104.737 19.2034 104.737 19.2034 104.737 19.2033C104.737 19.2033 104.737 19.2032 104.737 19.2032C104.737 19.2031 104.737 19.2031 104.737 19.2031C104.737 19.2031 104.737 19.2032 104.737 19.2034C104.736 19.2038 104.735 19.2047 104.734 19.206C104.732 19.2086 104.727 19.2129 104.722 19.2188C104.71 19.2307 104.692 19.2489 104.667 19.2726C104.618 19.3201 104.542 19.3894 104.442 19.4734C104.243 19.6414 103.945 19.8672 103.56 20.0933C102.789 20.5457 101.674 20.996 100.284 20.996V21.596C101.806 21.596 103.027 21.1023 103.864 20.6107C104.283 20.3648 104.607 20.1186 104.829 19.9326C104.939 19.8396 105.024 19.7614 105.082 19.7056C105.111 19.6777 105.134 19.6554 105.149 19.6396C105.157 19.6317 105.163 19.6254 105.168 19.6208C105.17 19.6186 105.172 19.6167 105.173 19.6154C105.173 19.6147 105.174 19.6141 105.174 19.6136C105.175 19.6134 105.175 19.6132 105.175 19.613C105.175 19.6129 105.175 19.6128 105.175 19.6128C105.175 19.6127 105.175 19.6126 104.956 19.408ZM100.284 20.996C99.9815 20.996 99.6764 20.9657 99.3539 20.9335L99.2942 21.5305C99.6116 21.5623 99.9465 21.596 100.284 21.596V20.996ZM99.3636 20.9346C98.2304 20.7835 97.2784 20.2981 96.6027 19.3677C95.9211 18.4291 95.496 17.0035 95.496 14.928H94.896C94.896 17.0765 95.3349 18.6429 96.1173 19.7203C96.9056 20.8059 98.0176 21.3605 99.2844 21.5294L99.3636 20.9346ZM95.496 14.928V14.768H94.896V14.928H95.496ZM95.196 15.068H106.236V14.468H95.196V15.068ZM99.324 8.54C100.434 8.54 101.344 9.03725 102.004 10.0121C102.672 10.9999 103.089 12.4889 103.152 14.4576L103.752 14.4384C103.687 12.4071 103.256 10.7921 102.5 9.67585C101.736 8.54675 100.646 7.94 99.324 7.94V8.54ZM103.452 14.148H95.196V14.748H103.452V14.148ZM95.4958 14.4579C95.5588 12.5537 95.9677 11.063 96.634 10.0578C97.2925 9.06451 98.203 8.54 99.324 8.54V7.94C97.981 7.94 96.8915 8.58349 96.134 9.72624C95.3843 10.857 94.9612 12.4703 94.8962 14.4381L95.4958 14.4579Z" fill="black"/>
</svg>
