<svg width="16" height="16" viewBox="0 0 16 16" fill="none" xmlns="http://www.w3.org/2000/svg">
<path fill-rule="evenodd" clip-rule="evenodd" d="M0.50012 1.40758V5.90758C0.498939 5.93774 0.507901 5.96743 0.525575 5.9919C0.543249 6.01637 0.568615 6.03421 0.59762 6.04258L2.65262 6.79258C2.68098 6.80426 2.70532 6.82396 2.72264 6.84928C2.73996 6.87459 2.74951 6.90441 2.75012 6.93508V14.0001C2.75012 14.3979 2.90816 14.7794 3.18946 15.0607C3.47076 15.342 3.85229 15.5001 4.25012 15.5001H11.7501C12.1479 15.5001 12.5295 15.342 12.8108 15.0607C13.0921 14.7794 13.2501 14.3979 13.2501 14.0001V6.92008C13.2509 6.8875 13.2612 6.85587 13.2799 6.82918C13.2986 6.80248 13.3248 6.78192 13.3551 6.77008L15.4026 6.02008C15.4271 6.01349 15.4492 6.00015 15.4665 5.98158C15.4837 5.96301 15.4954 5.93996 15.5001 5.91508V1.41508C15.5005 1.3789 15.4878 1.3438 15.4644 1.31623C15.441 1.28867 15.4084 1.2705 15.3726 1.26508L11.1126 0.500076C11.0791 0.495352 11.0449 0.501556 11.0152 0.517767C10.9855 0.533978 10.9618 0.559334 10.9476 0.590076L10.1451 2.29258C9.95237 2.6984 9.64859 3.0413 9.26895 3.28156C8.88932 3.52181 8.44939 3.64959 8.00012 3.65008C7.55085 3.64959 7.11091 3.52181 6.73128 3.28156C6.35165 3.0413 6.04787 2.6984 5.85512 2.29258L5.05262 0.597576C5.03967 0.565438 5.01649 0.538467 4.98666 0.520841C4.95683 0.503214 4.92202 0.495916 4.88762 0.500076L0.62762 1.25008C0.590524 1.25563 0.556855 1.27489 0.533254 1.30404C0.509653 1.3332 0.497807 1.4525 0.500097 1.48994L0.50012 1.40758Z" fill="white" stroke="black" stroke-width="0.8" stroke-linecap="round" stroke-linejoin="round"/>
</svg>
