<svg width="20" height="20" viewBox="0 0 20 20" fill="none" xmlns="http://www.w3.org/2000/svg">
<g clip-path="url(#clip0_1788_14141)">
<path d="M9.99998 15C8.6739 15 7.40213 14.4732 6.46445 13.5355C5.52676 12.5978 4.99998 11.3261 4.99998 9.99998C4.99998 8.6739 5.52676 7.40213 6.46445 6.46445C7.40213 5.52676 8.6739 4.99998 9.99998 4.99998C11.3261 4.99998 12.5978 5.52676 13.5355 6.46445C14.4732 7.40213 15 8.6739 15 9.99998C15 11.3261 14.4732 12.5978 13.5355 13.5355C12.5978 14.4732 11.3261 15 9.99998 15ZM9.99998 13.3333C10.884 13.3333 11.7319 12.9821 12.357 12.357C12.9821 11.7319 13.3333 10.884 13.3333 9.99998C13.3333 9.11592 12.9821 8.26808 12.357 7.64296C11.7319 7.01784 10.884 6.66665 9.99998 6.66665C9.11592 6.66665 8.26808 7.01784 7.64296 7.64296C7.01784 8.26808 6.66665 9.11592 6.66665 9.99998C6.66665 10.884 7.01784 11.7319 7.64296 12.357C8.26808 12.9821 9.11592 13.3333 9.99998 13.3333ZM9.16665 0.833313H10.8333V3.33331H9.16665V0.833313ZM9.16665 16.6666H10.8333V19.1666H9.16665V16.6666ZM2.92915 4.10748L4.10748 2.92915L5.87498 4.69665L4.69665 5.87498L2.92915 4.10831V4.10748ZM14.125 15.3033L15.3033 14.125L17.0708 15.8925L15.8925 17.0708L14.125 15.3033ZM15.8925 2.92831L17.0708 4.10748L15.3033 5.87498L14.125 4.69665L15.8925 2.92915V2.92831ZM4.69665 14.125L5.87498 15.3033L4.10748 17.0708L2.92915 15.8925L4.69665 14.125ZM19.1666 9.16665V10.8333H16.6666V9.16665H19.1666ZM3.33331 9.16665V10.8333H0.833313V9.16665H3.33331Z" fill="#FBC02D"/>
</g>
<defs>
<clipPath id="clip0_1788_14141">
<rect width="20" height="20" fill="white"/>
</clipPath>
</defs>
</svg>
