<svg width="155" height="36" viewBox="0 0 155 36" fill="none" xmlns="http://www.w3.org/2000/svg">
<path d="M50.208 6.592H48.48C49.152 6.976 49.472 8.416 49.472 10.272V24.352C49.472 26.112 49.184 27.616 48.48 28H56.032C62.048 28 64.832 24.256 64.832 17.312C64.832 10.528 61.696 6.624 56.032 6.624L50.208 6.592ZM53.856 27.68C53.088 27.68 52.416 27.136 52.256 26.368C52.16 25.792 52.096 25.088 52.096 24.352V10.272C52.096 9.536 52.128 8.832 52.224 8.256C52.384 7.488 53.056 6.944 53.856 6.944H55.584C60.096 6.944 61.888 10.688 61.888 17.312C61.888 24.064 60.064 27.68 55.712 27.68H53.856ZM79.4245 13.888C75.5845 13.888 72.4805 16.512 72.4805 20.928C72.4805 25.536 75.5845 28.16 79.4245 28.16C81.7605 28.16 83.8085 27.2 85.0565 25.408C85.0565 25.408 83.3285 27.296 80.3845 27.296C80.0645 27.296 79.7445 27.264 79.4245 27.232C77.0245 26.912 75.2965 25.152 75.2965 20.928V20.768H86.3685C86.2725 16.416 83.2005 13.888 79.4245 13.888ZM75.2965 20.448C75.4245 16.576 76.9925 14.24 79.4245 14.24C81.8565 14.24 83.4245 16.448 83.5525 20.448H75.2965ZM70.6565 18.208C70.8165 17.536 71.9685 14.24 75.3605 13.024C76.0965 12.768 77.3445 12.48 78.7205 12.48C80.0325 12.48 81.4725 12.736 82.6245 13.504L83.3925 11.2C82.7205 11.104 82.0485 11.04 81.3445 11.04C79.2645 11.04 77.1845 11.52 75.5525 12.192C72.8005 13.376 70.9765 16.064 70.6565 17.408V13.888C70.5605 13.952 69.0885 14.88 67.0725 15.136C67.3925 15.328 67.6485 15.776 67.8085 16.416C67.9685 17.056 68.0645 17.888 68.0645 18.816V24.32C68.0645 26.112 67.7445 27.584 67.0725 28H71.6485C70.9765 27.616 70.6565 26.08 70.6565 24.32V18.208ZM94.1385 28.16C95.8665 28.16 99.5465 27.296 99.5465 24.16C99.5465 22.784 98.7465 21.44 97.1785 20.768L93.0185 18.944C91.9305 18.464 91.2265 17.952 91.2265 16.736C91.2265 15.328 92.4105 14.272 94.0745 14.24C95.6745 14.24 97.0505 14.88 97.4985 16.64L98.9385 15.264C97.6265 14.368 95.9625 13.92 94.1385 13.92C89.7865 13.92 88.6345 16.512 88.6345 17.728C88.6345 19.008 89.4025 20.288 90.8425 20.896L95.3545 22.88C96.4425 23.36 97.3065 24.064 97.3065 25.12C97.3065 26.624 96.0265 27.808 94.2025 27.84C92.4425 27.84 90.4905 26.976 90.2345 24.768L88.6025 26.176C90.0105 27.456 91.9625 28.16 94.1385 28.16ZM107.325 28.16C109.053 28.16 112.733 27.296 112.733 24.16C112.733 22.784 111.933 21.44 110.365 20.768L106.205 18.944C105.117 18.464 104.413 17.952 104.413 16.736C104.413 15.328 105.597 14.272 107.261 14.24C108.861 14.24 110.237 14.88 110.685 16.64L112.125 15.264C110.813 14.368 109.149 13.92 107.325 13.92C102.973 13.92 101.821 16.512 101.821 17.728C101.821 19.008 102.589 20.288 104.029 20.896L108.541 22.88C109.629 23.36 110.493 24.064 110.493 25.12C110.493 26.624 109.213 27.808 107.389 27.84C105.629 27.84 103.677 26.976 103.421 24.768L101.789 26.176C103.197 27.456 105.149 28.16 107.325 28.16ZM138.143 28C137.471 27.616 137.151 26.112 137.151 24.352V20.896C137.151 16.32 135.199 13.92 131.871 13.92C129.215 13.92 127.839 16.256 127.327 17.312C126.527 15.072 124.863 13.92 122.591 13.92C120.223 13.92 119.135 15.52 118.559 16.512V13.92C118.463 13.952 116.991 14.88 114.975 15.168C115.295 15.328 115.551 15.776 115.711 16.416C115.871 17.056 115.935 17.888 115.935 18.816V24.352C115.935 26.112 115.647 27.584 114.975 28H119.551C118.879 27.616 118.559 26.112 118.559 24.352V16.992C118.815 16.704 119.711 14.656 121.567 14.528H121.855C123.039 14.528 125.247 15.04 125.247 20.96V24.352C125.247 26.112 124.959 27.584 124.255 28H128.863C128.159 27.616 127.871 26.112 127.871 24.352V20.896C127.871 19.68 127.711 18.624 127.455 17.728C127.903 16.672 129.215 14.528 130.879 14.528H130.911C131.967 14.528 134.559 14.56 134.559 20.96V24.352C134.559 26.112 134.239 27.584 133.567 28H138.143ZM154.236 20.768C154.172 16.416 151.1 13.92 147.292 13.92C143.484 13.92 140.38 16.512 140.38 20.928C140.38 25.536 143.484 28.16 147.292 28.16C149.628 28.16 151.676 27.2 152.956 25.408C152.956 25.408 151.196 27.296 148.284 27.296C147.964 27.296 147.644 27.264 147.324 27.232C144.924 26.912 143.196 25.152 143.196 20.928V20.768H154.236ZM147.324 14.24C149.756 14.24 151.324 16.448 151.452 20.448H143.196C143.324 16.576 144.86 14.24 147.324 14.24Z" fill="black"/>
<path d="M50.208 6.592L50.2096 6.292H50.208V6.592ZM48.48 6.592V6.292H47.3503L48.3312 6.85247L48.48 6.592ZM48.48 28L48.3363 27.7366L48.48 28.3V28ZM56.032 6.624L56.0304 6.924H56.032V6.624ZM52.256 26.368L51.9598 26.4174L51.9623 26.4292L52.256 26.368ZM52.224 8.256L51.9301 8.19476L51.9281 8.20668L52.224 8.256ZM50.208 6.292H48.48V6.892H50.208V6.292ZM48.3312 6.85247C48.5547 6.98022 48.7771 7.32888 48.9374 7.95447C49.0929 8.56134 49.172 9.35803 49.172 10.272H49.772C49.772 9.32997 49.6911 8.47866 49.5186 7.80553C49.3509 7.15112 49.0773 6.58778 48.6288 6.33153L48.3312 6.85247ZM49.172 10.272V24.352H49.772V10.272H49.172ZM49.172 24.352C49.172 25.2191 49.1007 26.0083 48.9489 26.6197C48.7918 27.252 48.5691 27.6097 48.3363 27.7366L48.6237 28.2634C49.0949 28.0063 49.3682 27.42 49.5311 26.7643C49.6993 26.0877 49.772 25.2449 49.772 24.352H49.172ZM48.48 28.3H56.032V27.7H48.48V28.3ZM56.032 28.3C59.1058 28.3 61.4029 27.3403 62.922 25.4478C64.4309 23.5679 65.132 20.8162 65.132 17.312H64.532C64.532 20.7518 63.8411 23.3441 62.454 25.0722C61.0771 26.7877 58.9742 27.7 56.032 27.7V28.3ZM65.132 17.312C65.132 13.8787 64.339 11.1299 62.7882 9.23406C61.23 7.32913 58.9384 6.324 56.032 6.324V6.924C58.7896 6.924 60.898 7.87086 62.3238 9.61394C63.757 11.3661 64.532 13.9613 64.532 17.312H65.132ZM56.0336 6.324L50.2096 6.292L50.2064 6.89199L56.0304 6.92399L56.0336 6.324ZM53.856 27.38C53.2313 27.38 52.681 26.9368 52.5497 26.3068L51.9623 26.4292C52.1511 27.3352 52.9447 27.98 53.856 27.98V27.38ZM52.5519 26.3187C52.4587 25.7591 52.396 25.0716 52.396 24.352H51.796C51.796 25.1044 51.8613 25.8249 51.9601 26.4173L52.5519 26.3187ZM52.396 24.352V10.272H51.796V24.352H52.396ZM52.396 10.272C52.396 9.54159 52.428 8.85695 52.5199 8.30532L51.9281 8.20668C51.828 8.80705 51.796 9.53041 51.796 10.272H52.396ZM52.5177 8.31718C52.6482 7.69061 53.1957 7.244 53.856 7.244V6.644C52.9163 6.644 52.1198 7.28539 51.9303 8.19481L52.5177 8.31718ZM53.856 7.244H55.584V6.644H53.856V7.244ZM55.584 7.244C56.6698 7.244 57.5749 7.46892 58.3247 7.89354C59.0739 8.31785 59.6846 8.951 60.1678 9.79329C61.1402 11.4883 61.588 14.0162 61.588 17.312H62.188C62.188 13.9838 61.7398 11.3277 60.6882 9.49471C60.1594 8.573 59.4761 7.85614 58.6203 7.37146C57.7651 6.88707 56.7542 6.644 55.584 6.644V7.244ZM61.588 17.312C61.588 20.6719 61.1322 23.1999 60.1716 24.879C59.6943 25.7134 59.0945 26.3344 58.3649 26.7486C57.6347 27.1631 56.7577 27.38 55.712 27.38V27.98C56.8423 27.98 57.8253 27.7449 58.6611 27.2704C59.4975 26.7956 60.1697 26.0906 60.6924 25.177C61.7318 23.3601 62.188 20.7041 62.188 17.312H61.588ZM55.712 27.38H53.856V27.98H55.712V27.38ZM85.0565 25.408L85.3027 25.5794L84.8352 25.2055L85.0565 25.408ZM79.4245 27.232L79.3848 27.5295L79.3946 27.5305L79.4245 27.232ZM75.2965 20.768V20.468H74.9965V20.768H75.2965ZM86.3685 20.768V21.068H86.6752L86.6684 20.7614L86.3685 20.768ZM75.2965 20.448L74.9967 20.4381L74.9864 20.748H75.2965V20.448ZM83.5525 20.448V20.748H83.8623L83.8523 20.4384L83.5525 20.448ZM70.6565 18.208L70.3647 18.1385L70.3565 18.1728V18.208H70.6565ZM75.3605 13.024L75.2619 12.7406L75.2593 12.7416L75.3605 13.024ZM82.6245 13.504L82.4581 13.7536L82.7849 13.9715L82.9091 13.5989L82.6245 13.504ZM83.3925 11.2L83.6771 11.2949L83.7908 10.9538L83.4349 10.903L83.3925 11.2ZM75.5525 12.192L75.4383 11.9146L75.4339 11.9164L75.5525 12.192ZM70.6565 17.408H70.3565L70.9483 17.4775L70.6565 17.408ZM70.6565 13.888H70.9565V13.3274L70.4901 13.6384L70.6565 13.888ZM67.0725 15.136L67.0347 14.8384L66.1753 14.9475L66.9182 15.3932L67.0725 15.136ZM67.8085 16.416L68.0995 16.3432L67.8085 16.416ZM67.0725 28L66.9146 27.7449L66.0179 28.3H67.0725V28ZM71.6485 28V28.3H72.7782L71.7973 27.7395L71.6485 28ZM79.4245 13.588C77.4361 13.588 75.6227 14.268 74.3045 15.5358C72.9843 16.8056 72.1805 18.6463 72.1805 20.928H72.7805C72.7805 18.7937 73.5287 17.1144 74.7205 15.9682C75.9143 14.82 77.5729 14.188 79.4245 14.188V13.588ZM72.1805 20.928C72.1805 23.3021 72.9819 25.1908 74.3024 26.4862C75.6212 27.7798 77.4359 28.46 79.4245 28.46V27.86C77.5731 27.86 75.9158 27.2282 74.7226 26.0578C73.5311 24.8892 72.7805 23.1619 72.7805 20.928H72.1805ZM79.4245 28.46C81.8442 28.46 83.9908 27.4631 85.3027 25.5794L84.8103 25.2366C83.6262 26.9369 81.6768 27.86 79.4245 27.86V28.46ZM85.0565 25.408C84.8352 25.2055 84.8353 25.2054 84.8353 25.2053C84.8354 25.2053 84.8354 25.2052 84.8355 25.2052C84.8355 25.2051 84.8356 25.2051 84.8356 25.2051C84.8356 25.205 84.8355 25.2051 84.8353 25.2053C84.8349 25.2058 84.8341 25.2066 84.8329 25.2079C84.8305 25.2105 84.8264 25.2147 84.8207 25.2206C84.8094 25.2324 84.7915 25.2506 84.7672 25.2742C84.7186 25.3215 84.6446 25.3907 84.5461 25.4745C84.349 25.6423 84.0549 25.8677 83.6721 26.0936C82.9063 26.5454 81.7905 26.996 80.3845 26.996V27.596C81.9225 27.596 83.1427 27.1026 83.9769 26.6104C84.3941 26.3643 84.716 26.1177 84.9349 25.9315C85.0444 25.8383 85.1284 25.76 85.1858 25.704C85.2145 25.6761 85.2366 25.6537 85.252 25.6378C85.2597 25.6298 85.2657 25.6235 85.27 25.6189C85.2722 25.6166 85.2739 25.6148 85.2752 25.6134C85.2758 25.6127 85.2764 25.6121 85.2768 25.6116C85.277 25.6114 85.2772 25.6112 85.2774 25.611C85.2775 25.6109 85.2776 25.6108 85.2776 25.6108C85.2777 25.6106 85.2778 25.6105 85.0565 25.408ZM80.3845 26.996C80.082 26.996 79.7769 26.9657 79.4544 26.9335L79.3946 27.5305C79.7121 27.5623 80.047 27.596 80.3845 27.596V26.996ZM79.4642 26.9346C78.3309 26.7835 77.3789 26.2981 76.7032 25.3677C76.0216 24.4291 75.5965 23.0035 75.5965 20.928H74.9965C74.9965 23.0765 75.4354 24.6429 76.2178 25.7203C77.0061 26.8059 78.1181 27.3605 79.3849 27.5294L79.4642 26.9346ZM75.5965 20.928V20.768H74.9965V20.928H75.5965ZM75.2965 21.068H86.3685V20.468H75.2965V21.068ZM86.6684 20.7614C86.6188 18.5128 85.7981 16.7136 84.4819 15.4773C83.1678 14.243 81.3795 13.588 79.4245 13.588V14.188C81.2455 14.188 82.8812 14.797 84.0711 15.9147C85.2589 17.0304 86.0222 18.6712 86.0686 20.7746L86.6684 20.7614ZM75.5963 20.4579C75.6593 18.5548 76.0757 17.064 76.7461 16.0584C77.4092 15.0638 78.3204 14.54 79.4245 14.54V13.94C78.0966 13.94 77.0078 14.5842 76.2469 15.7256C75.4933 16.856 75.0618 18.4692 74.9967 20.4381L75.5963 20.4579ZM79.4245 14.54C80.5346 14.54 81.4442 15.0373 82.1041 16.0121C82.7726 16.9999 83.1897 18.4889 83.2527 20.4576L83.8523 20.4384C83.7873 18.4071 83.3564 16.7921 82.6009 15.6758C81.8368 14.5467 80.7464 13.94 79.4245 13.94V14.54ZM83.5525 20.148H75.2965V20.748H83.5525V20.148ZM70.9483 18.2775C71.0206 17.9739 71.3346 17.0168 72.0434 15.9905C72.7499 14.9673 73.8397 13.8879 75.4617 13.3064L75.2593 12.7416C73.4893 13.3761 72.3071 14.5527 71.5496 15.6495C70.7944 16.7432 70.4524 17.7701 70.3647 18.1385L70.9483 18.2775ZM75.4591 13.3073C76.1678 13.0608 77.3825 12.78 78.7205 12.78V12.18C77.3065 12.18 76.0252 12.4752 75.2619 12.7407L75.4591 13.3073ZM78.7205 12.78C80.0003 12.78 81.3739 13.0308 82.4581 13.7536L82.7909 13.2544C81.5712 12.4412 80.0647 12.18 78.7205 12.18V12.78ZM82.9091 13.5989L83.6771 11.2949L83.1079 11.1051L82.3399 13.4091L82.9091 13.5989ZM83.4349 10.903C82.7537 10.8057 82.0668 10.74 81.3445 10.74V11.34C82.0302 11.34 82.6873 11.4023 83.3501 11.497L83.4349 10.903ZM81.3445 10.74C79.2217 10.74 77.103 11.2291 75.4383 11.9146L75.6667 12.4694C77.266 11.8109 79.3073 11.34 81.3445 11.34V10.74ZM75.4339 11.9164C74.006 12.5307 72.8264 13.5313 71.9639 14.5457C71.1061 15.5546 70.5394 16.6045 70.3647 17.3385L70.9483 17.4775C71.0936 16.8675 71.5989 15.9014 72.4211 14.9343C73.2386 13.9727 74.347 13.0373 75.6711 12.4676L75.4339 11.9164ZM70.9565 17.408V13.888H70.3565V17.408H70.9565ZM70.4901 13.6384C70.4141 13.6891 68.9867 14.5905 67.0347 14.8384L67.1103 15.4336C69.1903 15.1695 70.7069 14.2149 70.8229 14.1376L70.4901 13.6384ZM66.9182 15.3932C67.1328 15.5221 67.3628 15.8702 67.5175 16.4888L68.0995 16.3432C67.9342 15.6818 67.6522 15.1339 67.2268 14.8788L66.9182 15.3932ZM67.5175 16.4888C67.6702 17.0998 67.7645 17.9066 67.7645 18.816H68.3645C68.3645 17.8694 68.2668 17.0122 68.0995 16.3432L67.5175 16.4888ZM67.7645 18.816V24.32H68.3645V18.816H67.7645ZM67.7645 24.32C67.7645 25.2011 67.6855 25.9903 67.5298 26.602C67.3694 27.2318 67.1455 27.602 66.9146 27.7449L67.2304 28.2551C67.6715 27.982 67.9436 27.4082 68.1112 26.75C68.2835 26.0737 68.3645 25.2309 68.3645 24.32H67.7645ZM67.0725 28.3H71.6485V27.7H67.0725V28.3ZM71.7973 27.7395C71.694 27.6805 71.5818 27.5632 71.4726 27.3655C71.3645 27.1697 71.2695 26.913 71.1914 26.6028C71.0354 25.9825 70.9565 25.1848 70.9565 24.32H70.3565C70.3565 25.2152 70.4376 26.0655 70.6096 26.7492C70.6955 27.091 70.8065 27.4003 70.9474 27.6555C71.0872 27.9088 71.267 28.1275 71.4997 28.2605L71.7973 27.7395ZM70.9565 24.32V18.208H70.3565V24.32H70.9565ZM97.1785 20.768L97.058 21.0428L97.0603 21.0437L97.1785 20.768ZM93.0185 18.944L92.8974 19.2185L92.898 19.2188L93.0185 18.944ZM94.0745 14.24V13.9399L94.0687 13.9401L94.0745 14.24ZM97.4985 16.64L97.2078 16.714L97.3345 17.2117L97.7058 16.8569L97.4985 16.64ZM98.9385 15.264L99.1458 15.4809L99.4135 15.2251L99.1077 15.0163L98.9385 15.264ZM90.8425 20.896L90.9633 20.6213L90.9592 20.6196L90.8425 20.896ZM95.3545 22.88L95.4756 22.6055L95.4753 22.6054L95.3545 22.88ZM94.2025 27.84V28.14L94.2078 28.14L94.2025 27.84ZM90.2345 24.768L90.5325 24.7334L90.4673 24.1709L90.0385 24.5409L90.2345 24.768ZM88.6025 26.176L88.4065 25.9489L88.1501 26.1701L88.4007 26.398L88.6025 26.176ZM94.1385 28.46C95.0396 28.46 96.4429 28.237 97.6321 27.6005C98.8308 26.9589 99.8465 25.8732 99.8465 24.16H99.2465C99.2465 25.5828 98.4222 26.4971 97.3489 27.0715C96.2661 27.651 94.9654 27.86 94.1385 27.86V28.46ZM99.8465 24.16C99.8465 22.6608 98.9721 21.2103 97.2967 20.4923L97.0603 21.0437C98.5209 21.6697 99.2465 22.9072 99.2465 24.16H99.8465ZM97.299 20.4932L93.139 18.6692L92.898 19.2188L97.058 21.0427L97.299 20.4932ZM93.1396 18.6695C92.6024 18.4325 92.2032 18.2049 91.9355 17.9132C91.68 17.6347 91.5265 17.2777 91.5265 16.736H90.9265C90.9265 17.4103 91.125 17.9173 91.4935 18.3188C91.8498 18.7071 92.3466 18.9755 92.8974 19.2185L93.1396 18.6695ZM91.5265 16.736C91.5265 15.5307 92.5374 14.5696 94.0803 14.5399L94.0687 13.9401C92.2836 13.9744 90.9265 15.1253 90.9265 16.736H91.5265ZM94.0745 14.54C94.8376 14.54 95.5205 14.693 96.058 15.0334C96.5885 15.3695 97.0012 15.9026 97.2078 16.714L97.7892 16.566C97.5478 15.6173 97.0485 14.9505 96.379 14.5266C95.7166 14.107 94.9114 13.94 94.0745 13.94V14.54ZM97.7058 16.8569L99.1458 15.4809L98.7312 15.0471L97.2912 16.4231L97.7058 16.8569ZM99.1077 15.0163C97.7362 14.0797 96.0101 13.62 94.1385 13.62V14.22C95.9149 14.22 97.5168 14.6563 98.7693 15.5117L99.1077 15.0163ZM94.1385 13.62C91.9002 13.62 90.4445 14.2883 89.5466 15.1517C88.6556 16.0085 88.3345 17.0386 88.3345 17.728H88.9345C88.9345 17.2014 89.1894 16.3275 89.9624 15.5842C90.7285 14.8477 92.0248 14.22 94.1385 14.22V13.62ZM88.3345 17.728C88.3345 19.1305 89.1765 20.5182 90.7258 21.1724L90.9592 20.6196C89.6285 20.0578 88.9345 18.8855 88.9345 17.728H88.3345ZM90.7217 21.1706L95.2337 23.1546L95.4753 22.6054L90.9633 20.6214L90.7217 21.1706ZM95.2334 23.1545C96.3048 23.6271 97.0065 24.2584 97.0065 25.12H97.6065C97.6065 23.8696 96.5802 23.0929 95.4756 22.6055L95.2334 23.1545ZM97.0065 25.12C97.0065 26.4243 95.8962 27.5102 94.1972 27.54L94.2078 28.14C96.1568 28.1058 97.6065 26.8237 97.6065 25.12H97.0065ZM94.2025 27.54C93.3668 27.54 92.5004 27.3341 91.8206 26.8822C91.1496 26.436 90.6497 25.7445 90.5325 24.7334L89.9365 24.8026C90.0753 25.9995 90.6794 26.844 91.4884 27.3818C92.2886 27.9139 93.2782 28.14 94.2025 28.14V27.54ZM90.0385 24.5409L88.4065 25.9489L88.7985 26.4031L90.4305 24.9951L90.0385 24.5409ZM88.4007 26.398C89.8714 27.735 91.8986 28.46 94.1385 28.46V27.86C92.0264 27.86 90.1496 27.177 88.8043 25.954L88.4007 26.398ZM110.365 20.768L110.244 21.0428L110.247 21.0437L110.365 20.768ZM106.205 18.944L106.084 19.2185L106.084 19.2188L106.205 18.944ZM107.261 14.24V13.9399L107.255 13.9401L107.261 14.24ZM110.685 16.64L110.394 16.714L110.521 17.2117L110.892 16.8569L110.685 16.64ZM112.125 15.264L112.332 15.4809L112.6 15.2251L112.294 15.0163L112.125 15.264ZM104.029 20.896L104.15 20.6213L104.145 20.6196L104.029 20.896ZM108.541 22.88L108.662 22.6055L108.662 22.6054L108.541 22.88ZM107.389 27.84V28.14L107.394 28.14L107.389 27.84ZM103.421 24.768L103.719 24.7334L103.654 24.1709L103.225 24.5409L103.421 24.768ZM101.789 26.176L101.593 25.9489L101.336 26.1701L101.587 26.398L101.789 26.176ZM107.325 28.46C108.226 28.46 109.629 28.237 110.818 27.6005C112.017 26.9589 113.033 25.8732 113.033 24.16H112.433C112.433 25.5828 111.608 26.4971 110.535 27.0715C109.452 27.651 108.152 27.86 107.325 27.86V28.46ZM113.033 24.16C113.033 22.6608 112.158 21.2103 110.483 20.4923L110.247 21.0437C111.707 21.6697 112.433 22.9072 112.433 24.16H113.033ZM110.485 20.4932L106.325 18.6692L106.084 19.2188L110.244 21.0427L110.485 20.4932ZM106.326 18.6695C105.789 18.4325 105.389 18.2049 105.122 17.9132C104.866 17.6347 104.713 17.2777 104.713 16.736H104.113C104.113 17.4103 104.311 17.9173 104.68 18.3188C105.036 18.7071 105.533 18.9755 106.084 19.2185L106.326 18.6695ZM104.713 16.736C104.713 15.5307 105.724 14.5696 107.267 14.5399L107.255 13.9401C105.47 13.9744 104.113 15.1253 104.113 16.736H104.713ZM107.261 14.54C108.024 14.54 108.707 14.693 109.244 15.0334C109.775 15.3695 110.187 15.9026 110.394 16.714L110.975 16.566C110.734 15.6173 110.235 14.9505 109.565 14.5266C108.903 14.107 108.098 13.94 107.261 13.94V14.54ZM110.892 16.8569L112.332 15.4809L111.917 15.0471L110.477 16.4231L110.892 16.8569ZM112.294 15.0163C110.922 14.0797 109.196 13.62 107.325 13.62V14.22C109.101 14.22 110.703 14.6563 111.956 15.5117L112.294 15.0163ZM107.325 13.62C105.086 13.62 103.631 14.2883 102.733 15.1517C101.842 16.0085 101.521 17.0386 101.521 17.728H102.121C102.121 17.2014 102.376 16.3275 103.149 15.5842C103.915 14.8477 105.211 14.22 107.325 14.22V13.62ZM101.521 17.728C101.521 19.1305 102.363 20.5182 103.912 21.1724L104.145 20.6196C102.815 20.0578 102.121 18.8855 102.121 17.728H101.521ZM103.908 21.1706L108.42 23.1546L108.662 22.6054L104.15 20.6214L103.908 21.1706ZM108.42 23.1545C109.491 23.6271 110.193 24.2584 110.193 25.12H110.793C110.793 23.8696 109.766 23.0929 108.662 22.6055L108.42 23.1545ZM110.193 25.12C110.193 26.4243 109.082 27.5102 107.383 27.54L107.394 28.14C109.343 28.1058 110.793 26.8237 110.793 25.12H110.193ZM107.389 27.54C106.553 27.54 105.687 27.3341 105.007 26.8822C104.336 26.436 103.836 25.7445 103.719 24.7334L103.123 24.8026C103.262 25.9995 103.866 26.844 104.675 27.3818C105.475 27.9139 106.464 28.14 107.389 28.14V27.54ZM103.225 24.5409L101.593 25.9489L101.985 26.4031L103.617 24.9951L103.225 24.5409ZM101.587 26.398C103.058 27.735 105.085 28.46 107.325 28.46V27.86C105.213 27.86 103.336 27.177 101.991 25.954L101.587 26.398ZM138.143 28V28.3H139.273L138.292 27.7395L138.143 28ZM127.327 17.312L127.044 17.4129L127.285 18.0863L127.597 17.4429L127.327 17.312ZM118.559 16.512H118.259V17.6261L118.818 16.6626L118.559 16.512ZM118.559 13.92H118.859V13.5038L118.464 13.6354L118.559 13.92ZM114.975 15.168L114.933 14.871L113.982 15.0068L114.841 15.4363L114.975 15.168ZM115.711 16.416L116.002 16.3432L115.711 16.416ZM114.975 28L114.817 27.7449L113.92 28.3H114.975V28ZM119.551 28V28.3H120.681L119.7 27.7395L119.551 28ZM118.559 16.992L118.335 16.7927L118.259 16.8779V16.992H118.559ZM121.567 14.528V14.228H121.557L121.546 14.2287L121.567 14.528ZM124.255 28L124.102 27.7417L123.158 28.3H124.255V28ZM128.863 28V28.3L129.007 27.7366L128.863 28ZM127.455 17.728L127.179 17.6108L127.137 17.7085L127.167 17.8104L127.455 17.728ZM133.567 28L133.409 27.7449L132.512 28.3H133.567V28ZM138.292 27.7395C138.187 27.6797 138.075 27.5632 137.966 27.369C137.858 27.1763 137.764 26.9239 137.686 26.618C137.53 26.0061 137.451 25.2169 137.451 24.352H136.851C136.851 25.2471 136.932 26.0899 137.104 26.766C137.19 27.1041 137.302 27.4097 137.443 27.662C137.583 27.9128 137.763 28.1283 137.994 28.2605L138.292 27.7395ZM137.451 24.352V20.896H136.851V24.352H137.451ZM137.451 20.896C137.451 18.5714 136.956 16.7527 135.997 15.5088C135.028 14.253 133.614 13.62 131.871 13.62V14.22C133.456 14.22 134.682 14.787 135.521 15.8752C136.37 16.9753 136.851 18.6446 136.851 20.896H137.451ZM131.871 13.62C129.018 13.62 127.569 16.1247 127.057 17.1811L127.597 17.4429C128.109 16.3873 129.412 14.22 131.871 14.22V13.62ZM127.61 17.2111C127.193 16.0435 126.543 15.1408 125.685 14.5314C124.826 13.9218 123.779 13.62 122.591 13.62V14.22C123.675 14.22 124.596 14.4942 125.337 15.0206C126.079 15.5472 126.661 16.3405 127.044 17.4129L127.61 17.2111ZM122.591 13.62C120.052 13.62 118.886 15.3512 118.3 16.3614L118.818 16.6626C119.384 15.6888 120.394 14.22 122.591 14.22V13.62ZM118.859 16.512V13.92H118.259V16.512H118.859ZM118.464 13.6354C118.431 13.6465 118.397 13.6646 118.386 13.6701C118.367 13.6801 118.343 13.6931 118.317 13.7074C118.263 13.7366 118.192 13.7755 118.103 13.8223C117.925 13.9157 117.676 14.0402 117.368 14.1724C116.753 14.4373 115.907 14.7318 114.933 14.871L115.017 15.465C116.059 15.3162 116.957 15.0027 117.606 14.7236C117.93 14.5838 118.193 14.4523 118.381 14.3537C118.475 14.3045 118.55 14.2634 118.603 14.2346C118.63 14.2199 118.65 14.2094 118.664 14.2022C118.686 14.1904 118.675 14.1975 118.654 14.2046L118.464 13.6354ZM114.841 15.4363C114.931 15.4812 115.037 15.5808 115.144 15.7635C115.25 15.944 115.345 16.1874 115.42 16.4888L116.002 16.3432C115.917 16.0046 115.804 15.704 115.662 15.4605C115.521 15.2192 115.339 15.0148 115.109 14.8997L114.841 15.4363ZM115.42 16.4888C115.571 17.0936 115.635 17.8971 115.635 18.816H116.235C116.235 17.8789 116.171 17.0184 116.002 16.3432L115.42 16.4888ZM115.635 18.816V24.352H116.235V18.816H115.635ZM115.635 24.352C115.635 25.2188 115.564 26.0007 115.416 26.609C115.263 27.236 115.046 27.6033 114.817 27.7449L115.133 28.2551C115.576 27.9807 115.839 27.404 115.998 26.751C116.162 26.0793 116.235 25.2452 116.235 24.352H115.635ZM114.975 28.3H119.551V27.7H114.975V28.3ZM119.7 27.7395C119.595 27.6797 119.483 27.5632 119.374 27.369C119.266 27.1763 119.172 26.9239 119.094 26.618C118.938 26.0061 118.859 25.2169 118.859 24.352H118.259C118.259 25.2471 118.34 26.0899 118.512 26.766C118.598 27.1041 118.71 27.4097 118.851 27.662C118.991 27.9128 119.171 28.1283 119.402 28.2605L119.7 27.7395ZM118.859 24.352V16.992H118.259V24.352H118.859ZM118.783 17.1913C118.835 17.1332 118.89 17.047 118.94 16.9682C118.997 16.8772 119.054 16.783 119.129 16.6644C119.275 16.4354 119.46 16.1623 119.69 15.8963C120.153 15.3609 120.773 14.8835 121.588 14.8273L121.546 14.2287C120.505 14.3005 119.749 14.9111 119.236 15.5037C118.978 15.8017 118.775 16.1026 118.623 16.3426C118.549 16.4585 118.48 16.5725 118.432 16.6492C118.376 16.738 118.347 16.7788 118.335 16.7927L118.783 17.1913ZM121.567 14.828H121.855V14.228H121.567V14.828ZM121.855 14.828C122.398 14.828 123.14 14.942 123.761 15.7123C124.398 16.5014 124.947 18.0263 124.947 20.96H125.547C125.547 17.9737 124.992 16.2826 124.229 15.3357C123.45 14.37 122.496 14.228 121.855 14.228V14.828ZM124.947 20.96V24.352H125.547V20.96H124.947ZM124.947 24.352C124.947 25.219 124.876 26.0001 124.724 26.6072C124.568 27.2316 124.345 27.5985 124.102 27.7417L124.408 28.2583C124.869 27.9855 125.142 27.4084 125.306 26.7528C125.474 26.0799 125.547 25.245 125.547 24.352H124.947ZM124.255 28.3H128.863V27.7H124.255V28.3ZM129.007 27.7366C128.774 27.6097 128.551 27.252 128.394 26.6197C128.242 26.0083 128.171 25.2191 128.171 24.352H127.571C127.571 25.2449 127.644 26.0877 127.812 26.7643C127.975 27.42 128.248 28.0063 128.719 28.2634L129.007 27.7366ZM128.171 24.352V20.896H127.571V24.352H128.171ZM128.171 20.896C128.171 19.6536 128.008 18.5698 127.743 17.6456L127.167 17.8104C127.414 18.6782 127.571 19.7064 127.571 20.896H128.171ZM127.731 17.8452C127.945 17.34 128.37 16.5695 128.936 15.931C129.509 15.2844 130.177 14.828 130.879 14.828V14.228C129.917 14.228 129.097 14.8436 128.486 15.533C127.868 16.2305 127.413 17.06 127.179 17.6108L127.731 17.8452ZM130.879 14.828H130.911V14.228H130.879V14.828ZM130.911 14.828C131.431 14.828 132.228 14.8402 132.915 15.5524C133.614 16.2764 134.259 17.7872 134.259 20.96H134.859C134.859 17.7328 134.208 16.0276 133.347 15.1356C132.474 14.2318 131.447 14.228 130.911 14.228V14.828ZM134.259 20.96V24.352H134.859V20.96H134.259ZM134.259 24.352C134.259 25.2167 134.18 25.9979 134.024 26.6055C133.864 27.2314 133.64 27.6018 133.409 27.7449L133.725 28.2551C134.166 27.9822 134.438 27.4086 134.606 26.7545C134.778 26.0821 134.859 25.2472 134.859 24.352H134.259ZM133.567 28.3H138.143V27.7H133.567V28.3ZM154.236 20.768V21.068H154.54L154.536 20.7636L154.236 20.768ZM152.956 25.408L153.2 25.5824L152.737 25.2034L152.956 25.408ZM147.324 27.232L147.284 27.5295L147.294 27.5305L147.324 27.232ZM143.196 20.768V20.468H142.896V20.768H143.196ZM151.452 20.448V20.748H151.762L151.752 20.4384L151.452 20.448ZM143.196 20.448L142.896 20.4381L142.886 20.748H143.196V20.448ZM154.536 20.7636C154.503 18.5142 153.69 16.7217 152.373 15.4926C151.058 14.2659 149.261 13.62 147.292 13.62V14.22C149.131 14.22 150.774 14.8221 151.963 15.9314C153.15 17.0383 153.905 18.6698 153.936 20.7724L154.536 20.7636ZM147.292 13.62C145.32 13.62 143.515 14.2917 142.2 15.5514C140.884 16.8133 140.08 18.6462 140.08 20.928H140.68C140.68 18.7938 141.428 17.1227 142.616 15.9846C143.805 14.8443 145.456 14.22 147.292 14.22V13.62ZM140.08 20.928C140.08 23.3021 140.881 25.1906 142.198 26.4858C143.512 27.7794 145.319 28.46 147.292 28.46V27.86C145.457 27.86 143.808 27.2286 142.618 26.0582C141.431 24.8894 140.68 23.1619 140.68 20.928H140.08ZM147.292 28.46C149.713 28.46 151.857 27.4627 153.2 25.5824L152.712 25.2336C151.495 26.9373 149.543 27.86 147.292 27.86V28.46ZM152.956 25.408C152.737 25.2034 152.737 25.2034 152.737 25.2033C152.737 25.2033 152.737 25.2032 152.737 25.2032C152.737 25.2031 152.737 25.2031 152.737 25.2031C152.737 25.2031 152.737 25.2032 152.737 25.2034C152.736 25.2038 152.735 25.2047 152.734 25.206C152.732 25.2086 152.727 25.2129 152.722 25.2188C152.71 25.2307 152.692 25.2489 152.667 25.2726C152.618 25.3201 152.542 25.3894 152.442 25.4734C152.243 25.6414 151.945 25.8672 151.56 26.0933C150.789 26.5457 149.674 26.996 148.284 26.996V27.596C149.806 27.596 151.027 27.1023 151.864 26.6107C152.283 26.3648 152.607 26.1186 152.829 25.9326C152.939 25.8396 153.024 25.7614 153.082 25.7056C153.111 25.6777 153.134 25.6554 153.149 25.6396C153.157 25.6317 153.163 25.6254 153.168 25.6208C153.17 25.6186 153.172 25.6167 153.173 25.6154C153.173 25.6147 153.174 25.6141 153.174 25.6136C153.175 25.6134 153.175 25.6132 153.175 25.613C153.175 25.6129 153.175 25.6128 153.175 25.6128C153.175 25.6127 153.175 25.6126 152.956 25.408ZM148.284 26.996C147.981 26.996 147.676 26.9657 147.354 26.9335L147.294 27.5305C147.612 27.5623 147.947 27.596 148.284 27.596V26.996ZM147.364 26.9346C146.23 26.7835 145.278 26.2981 144.603 25.3677C143.921 24.4291 143.496 23.0035 143.496 20.928H142.896C142.896 23.0765 143.335 24.6429 144.117 25.7203C144.906 26.8059 146.018 27.3605 147.284 27.5294L147.364 26.9346ZM143.496 20.928V20.768H142.896V20.928H143.496ZM143.196 21.068H154.236V20.468H143.196V21.068ZM147.324 14.54C148.434 14.54 149.344 15.0373 150.004 16.0121C150.672 16.9999 151.089 18.4889 151.152 20.4576L151.752 20.4384C151.687 18.4071 151.256 16.7921 150.5 15.6758C149.736 14.5467 148.646 13.94 147.324 13.94V14.54ZM151.452 20.148H143.196V20.748H151.452V20.148ZM143.496 20.4579C143.559 18.5537 143.968 17.063 144.634 16.0578C145.292 15.0645 146.203 14.54 147.324 14.54V13.94C145.981 13.94 144.892 14.5835 144.134 15.7262C143.384 16.857 142.961 18.4703 142.896 20.4381L143.496 20.4579Z" fill="black"/>
<rect width="36" height="36" rx="18" fill="black" fill-opacity="0.2"/>
<path d="M17.9971 11.7097L23.2816 8.1665L22.8192 9.69374L19.054 12.8093L19.9127 13.8478L18.7237 16.2914L19.7146 19.1626L17.9971 24.4774V11.7097Z" fill="#4D4D4D"/>
<path d="M17.9971 11.7097L12.7125 8.1665L13.1749 9.69374L16.9402 12.8093L16.0814 13.8478L17.2704 16.2914L16.2796 19.1626L17.9971 24.4774V11.7097Z" fill="#4D4D4D"/>
<path d="M23.2495 8.1665L17.999 24.3556V29.8332L24.6452 18.3912C22.9438 15.2264 25.3542 14.1106 26.772 13.9483L28.8324 8.1665H23.2495Z" fill="black"/>
<path d="M12.7485 8.1665L17.999 24.3556V29.8332L11.3528 18.3912C13.0542 15.2264 10.6439 14.1106 9.22602 13.9483L7.16569 8.1665H12.7485Z" fill="black"/>
</svg>
