<svg width="168" height="42" viewBox="0 0 168 42" fill="none" xmlns="http://www.w3.org/2000/svg">
<path d="M56.346 9.254H54.51C55.224 9.662 55.564 11.192 55.564 13.164V28.124C55.564 29.994 55.258 31.592 54.51 32H62.534C68.926 32 71.884 28.022 71.884 20.644C71.884 13.436 68.552 9.288 62.534 9.288L56.346 9.254ZM60.222 31.66C59.406 31.66 58.692 31.082 58.522 30.266C58.42 29.654 58.352 28.906 58.352 28.124V13.164C58.352 12.382 58.386 11.634 58.488 11.022C58.658 10.206 59.372 9.628 60.222 9.628H62.058C66.852 9.628 68.756 13.606 68.756 20.644C68.756 27.818 66.818 31.66 62.194 31.66H60.222ZM87.3885 17.006C83.3085 17.006 80.0105 19.794 80.0105 24.486C80.0105 29.382 83.3085 32.17 87.3885 32.17C89.8705 32.17 92.0465 31.15 93.3725 29.246C93.3725 29.246 91.5365 31.252 88.4085 31.252C88.0685 31.252 87.7285 31.218 87.3885 31.184C84.8385 30.844 83.0025 28.974 83.0025 24.486V24.316H94.7665C94.6645 19.692 91.4005 17.006 87.3885 17.006ZM83.0025 23.976C83.1385 19.862 84.8045 17.38 87.3885 17.38C89.9725 17.38 91.6385 19.726 91.7745 23.976H83.0025ZM78.0725 21.596C78.2425 20.882 79.4665 17.38 83.0705 16.088C83.8525 15.816 85.1785 15.51 86.6405 15.51C88.0345 15.51 89.5645 15.782 90.7885 16.598L91.6045 14.15C90.8905 14.048 90.1765 13.98 89.4285 13.98C87.2185 13.98 85.0085 14.49 83.2745 15.204C80.3505 16.462 78.4125 19.318 78.0725 20.746V17.006C77.9705 17.074 76.4065 18.06 74.2645 18.332C74.6045 18.536 74.8765 19.012 75.0465 19.692C75.2165 20.372 75.3185 21.256 75.3185 22.242V28.09C75.3185 29.994 74.9785 31.558 74.2645 32H79.1265C78.4125 31.592 78.0725 29.96 78.0725 28.09V21.596ZM103.022 32.17C104.858 32.17 108.768 31.252 108.768 27.92C108.768 26.458 107.918 25.03 106.252 24.316L101.832 22.378C100.676 21.868 99.9282 21.324 99.9282 20.032C99.9282 18.536 101.186 17.414 102.954 17.38C104.654 17.38 106.116 18.06 106.592 19.93L108.122 18.468C106.728 17.516 104.96 17.04 103.022 17.04C98.3982 17.04 97.1742 19.794 97.1742 21.086C97.1742 22.446 97.9902 23.806 99.5202 24.452L104.314 26.56C105.47 27.07 106.388 27.818 106.388 28.94C106.388 30.538 105.028 31.796 103.09 31.83C101.22 31.83 99.1462 30.912 98.8742 28.566L97.1402 30.062C98.6362 31.422 100.71 32.17 103.022 32.17ZM117.033 32.17C118.869 32.17 122.779 31.252 122.779 27.92C122.779 26.458 121.929 25.03 120.263 24.316L115.843 22.378C114.687 21.868 113.939 21.324 113.939 20.032C113.939 18.536 115.197 17.414 116.965 17.38C118.665 17.38 120.127 18.06 120.603 19.93L122.133 18.468C120.739 17.516 118.971 17.04 117.033 17.04C112.409 17.04 111.185 19.794 111.185 21.086C111.185 22.446 112.001 23.806 113.531 24.452L118.325 26.56C119.481 27.07 120.399 27.818 120.399 28.94C120.399 30.538 119.039 31.796 117.101 31.83C115.231 31.83 113.157 30.912 112.885 28.566L111.151 30.062C112.647 31.422 114.721 32.17 117.033 32.17ZM149.777 32C149.063 31.592 148.723 29.994 148.723 28.124V24.452C148.723 19.59 146.649 17.04 143.113 17.04C140.291 17.04 138.829 19.522 138.285 20.644C137.435 18.264 135.667 17.04 133.253 17.04C130.737 17.04 129.581 18.74 128.969 19.794V17.04C128.867 17.074 127.303 18.06 125.161 18.366C125.501 18.536 125.773 19.012 125.943 19.692C126.113 20.372 126.181 21.256 126.181 22.242V28.124C126.181 29.994 125.875 31.558 125.161 32H130.023C129.309 31.592 128.969 29.994 128.969 28.124V20.304C129.241 19.998 130.193 17.822 132.165 17.686H132.471C133.729 17.686 136.075 18.23 136.075 24.52V28.124C136.075 29.994 135.769 31.558 135.021 32H139.917C139.169 31.592 138.863 29.994 138.863 28.124V24.452C138.863 23.16 138.693 22.038 138.421 21.086C138.897 19.964 140.291 17.686 142.059 17.686H142.093C143.215 17.686 145.969 17.72 145.969 24.52V28.124C145.969 29.994 145.629 31.558 144.915 32H149.777ZM166.876 24.316C166.808 19.692 163.544 17.04 159.498 17.04C155.452 17.04 152.154 19.794 152.154 24.486C152.154 29.382 155.452 32.17 159.498 32.17C161.98 32.17 164.156 31.15 165.516 29.246C165.516 29.246 163.646 31.252 160.552 31.252C160.212 31.252 159.872 31.218 159.532 31.184C156.982 30.844 155.146 28.974 155.146 24.486V24.316H166.876ZM159.532 17.38C162.116 17.38 163.782 19.726 163.918 23.976H155.146C155.282 19.862 156.914 17.38 159.532 17.38Z" fill="#EAA700"/>
<path d="M56.346 9.254L56.3476 8.954H56.346V9.254ZM54.51 9.254V8.954H53.3803L54.3612 9.51447L54.51 9.254ZM54.51 32L54.3663 31.7366L54.51 32.3V32ZM62.534 9.288L62.5324 9.588H62.534V9.288ZM58.522 30.266L58.2258 30.3154L58.2283 30.3272L58.522 30.266ZM58.488 11.022L58.1941 10.9608L58.1921 10.9727L58.488 11.022ZM56.346 8.954H54.51V9.554H56.346V8.954ZM54.3612 9.51447C54.6057 9.65422 54.8436 10.0314 55.0141 10.697C55.1799 11.3438 55.264 12.192 55.264 13.164H55.864C55.864 12.164 55.7781 11.2612 55.5954 10.548C55.4174 9.85362 55.1283 9.26178 54.6588 8.99353L54.3612 9.51447ZM55.264 13.164V28.124H55.864V13.164H55.264ZM55.264 28.124C55.264 29.0461 55.1882 29.8863 55.0264 30.5379C54.8593 31.2105 54.6211 31.5977 54.3663 31.7366L54.6537 32.2634C55.1469 31.9943 55.4357 31.3785 55.6086 30.6826C55.7868 29.9657 55.864 29.0719 55.864 28.124H55.264ZM54.51 32.3H62.534V31.7H54.51V32.3ZM62.534 32.3C65.7958 32.3 68.2304 31.2818 69.84 29.2765C71.4394 27.2839 72.184 24.3652 72.184 20.644H71.584C71.584 24.3008 70.8496 27.0601 69.372 28.901C67.9046 30.7292 65.6642 31.7 62.534 31.7V32.3ZM72.184 20.644C72.184 16.9987 71.342 14.0829 69.698 12.0731C68.0465 10.0541 65.6174 8.988 62.534 8.988V9.588C65.4686 9.588 67.7145 10.5959 69.2335 12.4529C70.76 14.3191 71.584 17.0813 71.584 20.644H72.184ZM62.5356 8.988L56.3476 8.954L56.3444 9.55399L62.5324 9.58799L62.5356 8.988ZM60.222 31.36C59.5493 31.36 58.957 30.8828 58.8157 30.2048L58.2283 30.3272C58.4271 31.2812 59.2627 31.96 60.222 31.96V31.36ZM58.8179 30.2167C58.7187 29.6211 58.652 28.8896 58.652 28.124H58.052C58.052 28.9224 58.1213 29.6869 58.2261 30.3153L58.8179 30.2167ZM58.652 28.124V13.164H58.052V28.124H58.652ZM58.652 13.164C58.652 12.3876 58.686 11.6589 58.7839 11.0713L58.1921 10.9727C58.086 11.6091 58.052 12.3764 58.052 13.164H58.652ZM58.7817 11.0832C58.9222 10.4086 59.5117 9.928 60.222 9.928V9.328C59.2323 9.328 58.3938 10.0034 58.1943 10.9608L58.7817 11.0832ZM60.222 9.928H62.058V9.328H60.222V9.928ZM62.058 9.928C63.2143 9.928 64.1793 10.1675 64.9792 10.6206C65.7785 11.0733 66.4297 11.7486 66.9445 12.646C67.9802 14.4513 68.456 17.1412 68.456 20.644H69.056C69.056 17.1088 68.5798 14.2907 67.465 12.3475C66.9046 11.3706 66.1808 10.6116 65.2749 10.0985C64.3695 9.5857 63.2987 9.328 62.058 9.328V9.928ZM68.456 20.644C68.456 24.2149 67.9717 26.9049 66.9486 28.6933C66.44 29.5822 65.8005 30.2447 65.022 30.6867C64.2429 31.129 63.3077 31.36 62.194 31.36V31.96C63.3923 31.96 64.4334 31.7108 65.3182 31.2085C66.2035 30.7059 66.9155 29.9595 67.4694 28.9912C68.5713 27.0651 69.056 24.2471 69.056 20.644H68.456ZM62.194 31.36H60.222V31.96H62.194V31.36ZM93.3725 29.246L93.6187 29.4174L93.1512 29.0435L93.3725 29.246ZM87.3885 31.184L87.3489 31.4815L87.3587 31.4825L87.3885 31.184ZM83.0025 24.316V24.016H82.7025V24.316H83.0025ZM94.7665 24.316V24.616H95.0732L95.0665 24.3094L94.7665 24.316ZM83.0025 23.976L82.7027 23.9661L82.6925 24.276H83.0025V23.976ZM91.7745 23.976V24.276H92.0843L92.0744 23.9664L91.7745 23.976ZM78.0725 21.596L77.7807 21.5265L77.7725 21.5608V21.596H78.0725ZM83.0705 16.088L82.972 15.8046L82.9693 15.8056L83.0705 16.088ZM90.7885 16.598L90.6221 16.8476L90.9489 17.0655L91.0731 16.6929L90.7885 16.598ZM91.6045 14.15L91.8891 14.2449L92.0028 13.9038L91.647 13.853L91.6045 14.15ZM83.2745 15.204L83.1603 14.9266L83.156 14.9284L83.2745 15.204ZM78.0725 20.746H77.7725L78.3644 20.8155L78.0725 20.746ZM78.0725 17.006H78.3725V16.4454L77.9061 16.7564L78.0725 17.006ZM74.2645 18.332L74.2267 18.0344L73.3673 18.1435L74.1102 18.5892L74.2645 18.332ZM75.0465 19.692L75.3376 19.6192L75.0465 19.692ZM74.2645 32L74.1066 31.7449L73.21 32.3H74.2645V32ZM79.1265 32V32.3H80.2562L79.2754 31.7395L79.1265 32ZM87.3885 16.706C85.2801 16.706 83.3582 17.427 81.9616 18.7703C80.5628 20.1156 79.7105 22.0663 79.7105 24.486H80.3105C80.3105 22.2137 81.1072 20.4244 82.3775 19.2027C83.6499 17.979 85.417 17.306 87.3885 17.306V16.706ZM79.7105 24.486C79.7105 27.0041 80.5604 29.0058 81.9595 30.3782C83.3568 31.7488 85.2799 32.47 87.3885 32.47V31.87C85.4172 31.87 83.6513 31.1972 82.3796 29.9498C81.1097 28.7042 80.3105 26.8639 80.3105 24.486H79.7105ZM87.3885 32.47C89.9543 32.47 92.2289 31.4131 93.6187 29.4174L93.1264 29.0746C91.8642 30.8869 89.7868 31.87 87.3885 31.87V32.47ZM93.3725 29.246C93.1512 29.0435 93.1513 29.0434 93.1514 29.0433C93.1514 29.0433 93.1515 29.0432 93.1515 29.0432C93.1515 29.0431 93.1516 29.0431 93.1516 29.0431C93.1516 29.0431 93.1515 29.0432 93.1512 29.0434C93.1508 29.0439 93.1499 29.0448 93.1486 29.0462C93.146 29.049 93.1416 29.0536 93.1355 29.06C93.1233 29.0726 93.1041 29.092 93.0782 29.1173C93.0263 29.1678 92.9473 29.2416 92.8424 29.331C92.6322 29.5098 92.3189 29.75 91.9111 29.9906C91.0953 30.4719 89.9066 30.952 88.4085 30.952V31.552C90.0385 31.552 91.3317 31.0291 92.216 30.5074C92.6581 30.2465 92.9993 29.9852 93.2312 29.7879C93.3472 29.6892 93.4361 29.6063 93.4969 29.5471C93.5272 29.5175 93.5506 29.4938 93.5668 29.4771C93.5749 29.4687 93.5812 29.4621 93.5857 29.4573C93.588 29.4549 93.5898 29.4529 93.5911 29.4515C93.5918 29.4507 93.5924 29.4501 93.5928 29.4496C93.593 29.4494 93.5932 29.4492 93.5934 29.449C93.5935 29.4489 93.5936 29.4488 93.5936 29.4488C93.5937 29.4486 93.5938 29.4485 93.3725 29.246ZM88.4085 30.952C88.086 30.952 87.7609 30.9197 87.4184 30.8855L87.3587 31.4825C87.6961 31.5163 88.0511 31.552 88.4085 31.552V30.952ZM87.4282 30.8866C86.2199 30.7255 85.2034 30.2076 84.482 29.2142C83.7547 28.2126 83.3025 26.6935 83.3025 24.486H82.7025C82.7025 26.7665 83.1684 28.4264 83.9965 29.5668C84.8306 30.7154 86.0072 31.3025 87.3489 31.4814L87.4282 30.8866ZM83.3025 24.486V24.316H82.7025V24.486H83.3025ZM83.0025 24.616H94.7665V24.016H83.0025V24.616ZM95.0665 24.3094C95.0139 21.9248 94.1436 20.0181 92.7492 18.7083C91.3568 17.4005 89.4615 16.706 87.3885 16.706V17.306C89.3276 17.306 91.0702 17.9545 92.3384 19.1457C93.6044 20.3349 94.4172 22.0832 94.4666 24.3226L95.0665 24.3094ZM83.3024 23.9859C83.3693 21.9618 83.8123 20.374 84.5271 19.3017C85.2347 18.2403 86.2084 17.68 87.3885 17.68V17.08C85.9847 17.08 84.8333 17.7607 84.0279 18.9688C83.2298 20.166 82.7718 21.8762 82.7027 23.9661L83.3024 23.9859ZM87.3885 17.68C88.5747 17.68 89.5468 18.2118 90.2511 19.2524C90.9641 20.3059 91.4077 21.8919 91.4747 23.9856L92.0744 23.9664C92.0054 21.8101 91.548 20.0981 90.748 18.9161C89.9393 17.7212 88.7864 17.08 87.3885 17.08V17.68ZM91.7745 23.676H83.0025V24.276H91.7745V23.676ZM78.3644 21.6655C78.4417 21.3409 78.7761 20.3218 79.5306 19.2292C80.283 18.1398 81.4438 16.9899 83.1718 16.3704L82.9693 15.8056C81.0933 16.4781 79.8401 17.7252 79.0369 18.8883C78.236 20.0482 77.8734 21.1371 77.7807 21.5265L78.3644 21.6655ZM83.1691 16.3713C83.9239 16.1088 85.2165 15.81 86.6405 15.81V15.21C85.1406 15.21 83.7812 15.5232 82.972 15.8047L83.1691 16.3713ZM86.6405 15.81C88.0023 15.81 89.4659 16.0768 90.6221 16.8476L90.9549 16.3484C89.6632 15.4872 88.0668 15.21 86.6405 15.21V15.81ZM91.0731 16.6929L91.8891 14.2449L91.3199 14.0551L90.5039 16.5031L91.0731 16.6929ZM91.647 13.853C90.9237 13.7497 90.1949 13.68 89.4285 13.68V14.28C90.1582 14.28 90.8574 14.3463 91.5621 14.447L91.647 13.853ZM89.4285 13.68C87.1757 13.68 84.927 14.1991 83.1603 14.9266L83.3888 15.4814C85.09 14.7809 87.2613 14.28 89.4285 14.28V13.68ZM83.156 14.9284C81.6421 15.5797 80.3909 16.6408 79.476 17.7169C78.5657 18.7876 77.9655 19.9005 77.7807 20.6765L78.3644 20.8155C78.5196 20.1635 79.0584 19.1344 79.9331 18.1056C80.8031 17.0822 81.983 16.0863 83.3931 15.4796L83.156 14.9284ZM78.3725 20.746V17.006H77.7725V20.746H78.3725ZM77.9061 16.7564C77.8241 16.8111 76.3048 17.7705 74.2267 18.0344L74.3023 18.6296C76.5083 18.3495 78.117 17.3369 78.2389 17.2556L77.9061 16.7564ZM74.1102 18.5892C74.3449 18.7301 74.5909 19.1062 74.7555 19.7648L75.3376 19.6192C75.1622 18.9178 74.8642 18.3419 74.4189 18.0748L74.1102 18.5892ZM74.7555 19.7648C74.9182 20.4158 75.0185 21.2746 75.0185 22.242H75.6185C75.6185 21.2374 75.5148 20.3282 75.3376 19.6192L74.7555 19.7648ZM75.0185 22.242V28.09H75.6185V22.242H75.0185ZM75.0185 28.09C75.0185 29.0271 74.9346 29.8673 74.7686 30.5192C74.5979 31.1893 74.3586 31.589 74.1066 31.7449L74.4224 32.2551C74.8845 31.969 75.1721 31.3657 75.35 30.6673C75.5325 29.9507 75.6185 29.0569 75.6185 28.09H75.0185ZM74.2645 32.3H79.1265V31.7H74.2645V32.3ZM79.2754 31.7395C79.1615 31.6745 79.0402 31.5467 78.9233 31.3349C78.8074 31.125 78.7059 30.8506 78.6227 30.5201C78.4564 29.859 78.3725 29.0098 78.3725 28.09H77.7725C77.7725 29.0402 77.8586 29.942 78.0408 30.6664C78.1319 31.0286 78.2493 31.3556 78.398 31.6249C78.5456 31.8923 78.7346 32.1215 78.9777 32.2605L79.2754 31.7395ZM78.3725 28.09V21.596H77.7725V28.09H78.3725ZM106.252 24.316L106.132 24.5908L106.134 24.5917L106.252 24.316ZM101.832 22.378L101.711 22.6525L101.712 22.6528L101.832 22.378ZM102.954 17.38V17.0799L102.948 17.0801L102.954 17.38ZM106.592 19.93L106.301 20.004L106.428 20.5017L106.799 20.1469L106.592 19.93ZM108.122 18.468L108.329 18.6849L108.597 18.4291L108.291 18.2203L108.122 18.468ZM99.5202 24.452L99.6409 24.1773L99.6368 24.1756L99.5202 24.452ZM104.314 26.56L104.435 26.2855L104.435 26.2854L104.314 26.56ZM103.09 31.83V32.13L103.095 32.13L103.09 31.83ZM98.8742 28.566L99.1722 28.5314L99.1069 27.9689L98.6782 28.3389L98.8742 28.566ZM97.1402 30.062L96.9442 29.8349L96.6877 30.0561L96.9384 30.284L97.1402 30.062ZM103.022 32.47C103.977 32.47 105.465 32.2335 106.725 31.559C107.995 30.8794 109.068 29.7312 109.068 27.92H108.468C108.468 29.4408 107.586 30.4176 106.442 31.03C105.288 31.6475 103.903 31.87 103.022 31.87V32.47ZM109.068 27.92C109.068 26.3348 108.144 24.8003 106.37 24.0403L106.134 24.5917C107.693 25.2597 108.468 26.5812 108.468 27.92H109.068ZM106.373 24.0413L101.953 22.1032L101.712 22.6528L106.132 24.5907L106.373 24.0413ZM101.953 22.1035C101.382 21.8515 100.955 21.6084 100.668 21.2954C100.393 20.9957 100.228 20.6117 100.228 20.032H99.6282C99.6282 20.7443 99.8377 21.2783 100.226 21.7011C100.601 22.1106 101.126 22.3945 101.711 22.6525L101.953 22.1035ZM100.228 20.032C100.228 18.7387 101.313 17.7116 102.96 17.6799L102.948 17.0801C101.059 17.1164 99.6282 18.3333 99.6282 20.032H100.228ZM102.954 17.68C103.767 17.68 104.497 17.843 105.072 18.2072C105.64 18.567 106.081 19.1376 106.301 20.004L106.883 19.856C106.627 18.8523 106.1 18.148 105.393 17.7003C104.693 17.257 103.841 17.08 102.954 17.08V17.68ZM106.799 20.1469L108.329 18.6849L107.915 18.2511L106.385 19.7131L106.799 20.1469ZM108.291 18.2203C106.838 17.2277 105.008 16.74 103.022 16.74V17.34C104.913 17.34 106.618 17.8043 107.953 18.7157L108.291 18.2203ZM103.022 16.74C100.648 16.74 99.1062 17.4488 98.1562 18.3622C97.2132 19.269 96.8742 20.3586 96.8742 21.086H97.4742C97.4742 20.5214 97.7471 19.588 98.5721 18.7947C99.3901 18.0082 100.772 17.34 103.022 17.34V16.74ZM96.8742 21.086C96.8742 22.5685 97.7642 24.0362 99.4035 24.7284L99.6368 24.1756C98.2162 23.5758 97.4742 22.3235 97.4742 21.086H96.8742ZM99.3994 24.7266L104.193 26.8346L104.435 26.2854L99.6409 24.1774L99.3994 24.7266ZM104.193 26.8345C105.332 27.3371 106.088 28.0124 106.088 28.94H106.688C106.688 27.6236 105.608 26.8029 104.435 26.2855L104.193 26.8345ZM106.088 28.94C106.088 30.3383 104.898 31.4982 103.085 31.53L103.095 32.13C105.158 32.0938 106.688 30.7377 106.688 28.94H106.088ZM103.09 31.53C102.199 31.53 101.275 31.3106 100.549 30.8279C99.8317 30.351 99.2974 29.6115 99.1722 28.5314L98.5762 28.6006C98.7229 29.8665 99.3616 30.759 100.217 31.3276C101.063 31.8904 102.111 32.13 103.09 32.13V31.53ZM98.6782 28.3389L96.9442 29.8349L97.3361 30.2891L99.0701 28.7931L98.6782 28.3389ZM96.9384 30.284C98.497 31.701 100.646 32.47 103.022 32.47V31.87C100.774 31.87 98.7753 31.143 97.342 29.84L96.9384 30.284ZM120.263 24.316L120.142 24.5908L120.144 24.5917L120.263 24.316ZM115.843 22.378L115.721 22.6525L115.722 22.6528L115.843 22.378ZM116.965 17.38V17.0799L116.959 17.0801L116.965 17.38ZM120.603 19.93L120.312 20.004L120.439 20.5017L120.81 20.1469L120.603 19.93ZM122.133 18.468L122.34 18.6849L122.608 18.4291L122.302 18.2203L122.133 18.468ZM113.531 24.452L113.651 24.1773L113.647 24.1756L113.531 24.452ZM118.325 26.56L118.446 26.2855L118.445 26.2854L118.325 26.56ZM117.101 31.83V32.13L117.106 32.13L117.101 31.83ZM112.885 28.566L113.183 28.5314L113.117 27.9689L112.689 28.3389L112.885 28.566ZM111.151 30.062L110.955 29.8349L110.698 30.0561L110.949 30.284L111.151 30.062ZM117.033 32.47C117.988 32.47 119.475 32.2335 120.736 31.559C122.005 30.8794 123.079 29.7312 123.079 27.92H122.479C122.479 29.4408 121.597 30.4176 120.452 31.03C119.299 31.6475 117.913 31.87 117.033 31.87V32.47ZM123.079 27.92C123.079 26.3348 122.154 24.8003 120.381 24.0403L120.144 24.5917C121.703 25.2597 122.479 26.5812 122.479 27.92H123.079ZM120.383 24.0413L115.963 22.1032L115.722 22.6528L120.142 24.5907L120.383 24.0413ZM115.964 22.1035C115.392 21.8515 114.965 21.6084 114.678 21.2954C114.403 20.9957 114.239 20.6117 114.239 20.032H113.639C113.639 20.7443 113.848 21.2783 114.236 21.7011C114.612 22.1106 115.137 22.3945 115.721 22.6525L115.964 22.1035ZM114.239 20.032C114.239 18.7387 115.323 17.7116 116.97 17.6799L116.959 17.0801C115.07 17.1164 113.639 18.3333 113.639 20.032H114.239ZM116.965 17.68C117.778 17.68 118.507 17.843 119.082 18.2072C119.65 18.567 120.091 19.1376 120.312 20.004L120.893 19.856C120.638 18.8523 120.11 18.148 119.403 17.7003C118.703 17.257 117.851 17.08 116.965 17.08V17.68ZM120.81 20.1469L122.34 18.6849L121.925 18.2511L120.395 19.7131L120.81 20.1469ZM122.302 18.2203C120.848 17.2277 119.018 16.74 117.033 16.74V17.34C118.923 17.34 120.629 17.8043 121.963 18.7157L122.302 18.2203ZM117.033 16.74C114.658 16.74 113.117 17.4488 112.167 18.3622C111.224 19.269 110.885 20.3586 110.885 21.086H111.485C111.485 20.5214 111.757 19.588 112.582 18.7947C113.401 18.0082 114.783 17.34 117.033 17.34V16.74ZM110.885 21.086C110.885 22.5685 111.775 24.0362 113.414 24.7284L113.647 24.1756C112.227 23.5758 111.485 22.3235 111.485 21.086H110.885ZM113.41 24.7266L118.204 26.8346L118.445 26.2854L113.651 24.1774L113.41 24.7266ZM118.203 26.8345C119.343 27.3371 120.099 28.0124 120.099 28.94H120.699C120.699 27.6236 119.618 26.8029 118.446 26.2855L118.203 26.8345ZM120.099 28.94C120.099 30.3383 118.908 31.4982 117.095 31.53L117.106 32.13C119.169 32.0938 120.699 30.7377 120.699 28.94H120.099ZM117.101 31.53C116.21 31.53 115.285 31.3106 114.559 30.8279C113.842 30.351 113.308 29.6115 113.183 28.5314L112.587 28.6006C112.733 29.8665 113.372 30.759 114.227 31.3276C115.074 31.8904 116.121 32.13 117.101 32.13V31.53ZM112.689 28.3389L110.955 29.8349L111.347 30.2891L113.081 28.7931L112.689 28.3389ZM110.949 30.284C112.507 31.701 114.657 32.47 117.033 32.47V31.87C114.784 31.87 112.786 31.143 111.352 29.84L110.949 30.284ZM149.777 32V32.3H150.907L149.926 31.7395L149.777 32ZM138.285 20.644L138.002 20.7449L138.243 21.4183L138.555 20.7749L138.285 20.644ZM128.969 19.794H128.669V20.9081L129.228 19.9446L128.969 19.794ZM128.969 17.04H129.269V16.6238L128.874 16.7554L128.969 17.04ZM125.161 18.366L125.119 18.069L124.168 18.2048L125.027 18.6343L125.161 18.366ZM125.943 19.692L126.234 19.6192L125.943 19.692ZM125.161 32L125.003 31.7449L124.106 32.3H125.161V32ZM130.023 32V32.3H131.153L130.172 31.7395L130.023 32ZM128.969 20.304L128.745 20.1047L128.669 20.1899V20.304H128.969ZM132.165 17.686V17.386H132.155L132.144 17.3867L132.165 17.686ZM135.021 32L134.868 31.7417L133.924 32.3H135.021V32ZM139.917 32V32.3L140.061 31.7366L139.917 32ZM138.421 21.086L138.145 20.9688L138.103 21.0665L138.132 21.1684L138.421 21.086ZM144.915 32L144.757 31.7449L143.86 32.3H144.915V32ZM149.926 31.7395C149.811 31.6737 149.689 31.5469 149.573 31.3387C149.457 31.1321 149.356 30.8622 149.273 30.5362C149.107 29.8841 149.023 29.0439 149.023 28.124H148.423C148.423 29.0741 148.509 29.9679 148.691 30.6843C148.783 31.0425 148.9 31.3655 149.049 31.6317C149.197 31.8964 149.386 32.1223 149.628 32.2605L149.926 31.7395ZM149.023 28.124V24.452H148.423V28.124H149.023ZM149.023 24.452C149.023 21.9844 148.497 20.0567 147.481 18.7395C146.456 17.4105 144.96 16.74 143.113 16.74V17.34C144.801 17.34 146.11 17.9445 147.006 19.106C147.911 20.2793 148.423 22.0576 148.423 24.452H149.023ZM143.113 16.74C140.094 16.74 138.559 19.3907 138.015 20.5131L138.555 20.7749C139.099 19.6533 140.488 17.34 143.113 17.34V16.74ZM138.567 20.5431C138.125 19.3055 137.438 18.3498 136.529 17.7049C135.621 17.0598 134.512 16.74 133.253 16.74V17.34C134.408 17.34 135.39 17.6322 136.182 18.1941C136.973 18.7562 137.594 19.6025 138.002 20.7449L138.567 20.5431ZM133.253 16.74C130.566 16.74 129.332 18.5712 128.71 19.6434L129.228 19.9446C129.83 18.9088 130.908 17.34 133.253 17.34V16.74ZM129.269 19.794V17.04H128.669V19.794H129.269ZM128.874 16.7554C128.84 16.7666 128.806 16.7851 128.794 16.7911C128.774 16.8017 128.749 16.8154 128.721 16.8306C128.664 16.8616 128.588 16.903 128.493 16.9528C128.303 17.0522 128.038 17.1847 127.711 17.3254C127.056 17.6073 126.156 17.9208 125.119 18.069L125.203 18.663C126.308 18.5052 127.261 18.1727 127.949 17.8766C128.293 17.7283 128.572 17.5888 128.771 17.4842C128.871 17.432 128.951 17.3884 129.007 17.3578C129.036 17.3421 129.057 17.3309 129.072 17.3232C129.095 17.3108 129.085 17.3177 129.064 17.3246L128.874 16.7554ZM125.027 18.6343C125.127 18.6842 125.242 18.7933 125.357 18.9892C125.47 19.183 125.572 19.4434 125.652 19.7648L126.234 19.6192C126.144 19.2606 126.025 18.943 125.875 18.6863C125.726 18.4317 125.535 18.2178 125.295 18.0977L125.027 18.6343ZM125.652 19.7648C125.813 20.4096 125.881 21.2651 125.881 22.242H126.481C126.481 21.2469 126.413 20.3344 126.234 19.6192L125.652 19.7648ZM125.881 22.242V28.124H126.481V22.242H125.881ZM125.881 28.124C125.881 29.0458 125.805 29.8782 125.647 30.5265C125.485 31.1935 125.253 31.5903 125.003 31.7449L125.319 32.2551C125.783 31.9677 126.061 31.3615 126.23 30.6685C126.404 29.9568 126.481 29.0722 126.481 28.124H125.881ZM125.161 32.3H130.023V31.7H125.161V32.3ZM130.172 31.7395C130.057 31.6737 129.935 31.5469 129.819 31.3387C129.703 31.1321 129.602 30.8622 129.519 30.5362C129.353 29.8841 129.269 29.0439 129.269 28.124H128.669C128.669 29.0741 128.755 29.9679 128.937 30.6843C129.029 31.0425 129.146 31.3655 129.295 31.6317C129.443 31.8964 129.632 32.1223 129.874 32.2605L130.172 31.7395ZM129.269 28.124V20.304H128.669V28.124H129.269ZM129.193 20.5033C129.247 20.4429 129.305 20.3528 129.358 20.2688C129.418 20.1725 129.479 20.0718 129.559 19.9459C129.714 19.7022 129.911 19.4112 130.156 19.1275C130.65 18.5569 131.313 18.0455 132.186 17.9853L132.144 17.3867C131.045 17.4625 130.246 18.1071 129.703 18.735C129.43 19.0505 129.214 19.3694 129.053 19.6241C128.974 19.7473 128.901 19.8678 128.849 19.9497C128.79 20.0437 128.759 20.0886 128.745 20.1047L129.193 20.5033ZM132.165 17.986H132.471V17.386H132.165V17.986ZM132.471 17.986C133.051 17.986 133.846 18.108 134.511 18.9326C135.191 19.7759 135.775 21.4013 135.775 24.52H136.375C136.375 21.3487 135.786 19.5571 134.978 18.5559C134.156 17.536 133.149 17.386 132.471 17.386V17.986ZM135.775 24.52V28.124H136.375V24.52H135.775ZM135.775 28.124C135.775 29.046 135.699 29.8776 135.537 30.5247C135.371 31.1891 135.133 31.5855 134.868 31.7417L135.174 32.2583C135.657 31.9725 135.946 31.3659 136.119 30.6703C136.298 29.9574 136.375 29.072 136.375 28.124H135.775ZM135.021 32.3H139.917V31.7H135.021V32.3ZM140.061 31.7366C139.806 31.5977 139.568 31.2105 139.401 30.5379C139.239 29.8863 139.163 29.0461 139.163 28.124H138.563C138.563 29.0719 138.64 29.9657 138.818 30.6826C138.991 31.3785 139.28 31.9943 139.773 32.2634L140.061 31.7366ZM139.163 28.124V24.452H138.563V28.124H139.163ZM139.163 24.452C139.163 23.1336 138.989 21.9838 138.709 21.0036L138.132 21.1684C138.396 22.0922 138.563 23.1864 138.563 24.452H139.163ZM138.697 21.2032C138.925 20.665 139.377 19.8445 139.98 19.1642C140.59 18.4759 141.305 17.986 142.059 17.986V17.386C141.045 17.386 140.179 18.0351 139.531 18.7663C138.876 19.5055 138.392 20.385 138.145 20.9688L138.697 21.2032ZM142.059 17.986H142.093V17.386H142.059V17.986ZM142.093 17.986C142.646 17.986 143.5 17.9987 144.236 18.7614C144.984 19.5359 145.669 21.1472 145.669 24.52H146.269C146.269 21.0928 145.577 19.2871 144.668 18.3446C143.746 17.3903 142.662 17.386 142.093 17.386V17.986ZM145.669 24.52V28.124H146.269V24.52H145.669ZM145.669 28.124C145.669 29.0437 145.585 29.8754 145.419 30.523C145.248 31.1889 145.009 31.5888 144.757 31.7449L145.073 32.2551C145.535 31.9692 145.822 31.3661 146 30.672C146.183 29.9596 146.269 29.0742 146.269 28.124H145.669ZM144.915 32.3H149.777V31.7H144.915V32.3ZM166.876 24.316V24.616H167.18L167.176 24.3116L166.876 24.316ZM165.516 29.246L165.76 29.4204L165.296 29.0414L165.516 29.246ZM159.532 31.184L159.492 31.4815L159.502 31.4825L159.532 31.184ZM155.146 24.316V24.016H154.846V24.316H155.146ZM163.918 23.976V24.276H164.228L164.218 23.9664L163.918 23.976ZM155.146 23.976L154.846 23.9661L154.836 24.276H155.146V23.976ZM167.176 24.3116C167.141 21.9262 166.279 20.0267 164.883 18.7246C163.49 17.4249 161.586 16.74 159.498 16.74V17.34C161.456 17.34 163.207 17.9811 164.474 19.1634C165.739 20.3433 166.543 22.0818 166.576 24.3204L167.176 24.3116ZM159.498 16.74C157.407 16.74 155.493 17.4522 154.101 18.7869C152.706 20.1238 151.854 22.0662 151.854 24.486H152.454C152.454 22.2138 153.25 20.4332 154.516 19.2201C155.784 18.0048 157.543 17.34 159.498 17.34V16.74ZM151.854 24.486C151.854 27.0041 152.704 29.0056 154.098 30.3778C155.491 31.7484 157.406 32.47 159.498 32.47V31.87C157.544 31.87 155.787 31.1976 154.519 29.9502C153.253 28.7044 152.454 26.8639 152.454 24.486H151.854ZM159.498 32.47C162.064 32.47 164.337 31.4127 165.76 29.4204L165.272 29.0716C163.975 30.8873 161.895 31.87 159.498 31.87V32.47ZM165.516 29.246C165.296 29.0414 165.296 29.0414 165.296 29.0413C165.296 29.0413 165.297 29.0412 165.297 29.0412C165.297 29.0411 165.297 29.0411 165.297 29.0411C165.297 29.0411 165.297 29.0412 165.296 29.0415C165.296 29.042 165.295 29.0429 165.294 29.0443C165.291 29.0472 165.286 29.0518 165.28 29.0582C165.268 29.0709 165.248 29.0904 165.222 29.1157C165.169 29.1664 165.089 29.2403 164.982 29.3298C164.769 29.5089 164.452 29.7494 164.042 29.9903C163.221 30.4722 162.032 30.952 160.552 30.952V31.552C162.165 31.552 163.458 31.0288 164.346 30.5077C164.79 30.2471 165.134 29.9861 165.368 29.7891C165.486 29.6905 165.576 29.6077 165.637 29.5487C165.668 29.5192 165.691 29.4956 165.708 29.4789C165.716 29.4706 165.722 29.4639 165.727 29.4592C165.729 29.4568 165.731 29.4549 165.732 29.4534C165.733 29.4527 165.734 29.4521 165.734 29.4516C165.734 29.4514 165.735 29.4512 165.735 29.451C165.735 29.4509 165.735 29.4508 165.735 29.4508C165.735 29.4507 165.735 29.4506 165.516 29.246ZM160.552 30.952C160.229 30.952 159.904 30.9197 159.562 30.8855L159.502 31.4825C159.839 31.5163 160.194 31.552 160.552 31.552V30.952ZM159.571 30.8866C158.363 30.7255 157.347 30.2076 156.625 29.2142C155.898 28.2126 155.446 26.6935 155.446 24.486H154.846C154.846 26.7665 155.312 28.4264 156.14 29.5668C156.974 30.7154 158.15 31.3025 159.492 31.4814L159.571 30.8866ZM155.446 24.486V24.316H154.846V24.486H155.446ZM155.146 24.616H166.876V24.016H155.146V24.616ZM159.532 17.68C160.718 17.68 161.69 18.2118 162.394 19.2524C163.107 20.3059 163.551 21.8919 163.618 23.9856L164.218 23.9664C164.149 21.8101 163.691 20.0981 162.891 18.9161C162.083 17.7212 160.93 17.08 159.532 17.08V17.68ZM163.918 23.676H155.146V24.276H163.918V23.676ZM155.446 23.9859C155.513 21.9607 155.947 20.373 156.658 19.301C157.361 18.241 158.334 17.68 159.532 17.68V17.08C158.112 17.08 156.96 17.76 156.158 18.9695C155.364 20.167 154.915 21.8773 154.846 23.9661L155.446 23.9859Z" fill="#EAA700"/>
<rect width="40" height="40" rx="20" fill="#FBC02D" fill-opacity="0.2"/>
<path fill-rule="evenodd" clip-rule="evenodd" d="M13.9017 9.16663L19.9993 13.2549L26.0969 9.16663L25.5633 10.9288L21.2188 14.5237L22.2097 15.722L20.8377 18.5415L21.981 21.8544L19.9993 27.9868L18.0176 21.8544L19.1609 18.5415L17.7889 15.722L18.7798 14.5237L14.4353 10.9288L13.9017 9.16663Z" fill="#A77700"/>
<path fill-rule="evenodd" clip-rule="evenodd" d="M20 27.8464L13.9417 9.16663H7.5L9.8773 15.838C11.5133 16.0252 14.2945 17.3127 12.3313 20.9644L20 34.1666L27.6687 20.9644C25.7055 17.3127 28.4867 16.0252 30.1227 15.838L32.5 9.16663H26.0583L20 27.8464Z" fill="#EAA700"/>
</svg>
